<?xml version="1.0" standalone="no"?>
<!DOCTYPE svg PUBLIC "-//W3C//DTD SVG 20010904//EN"
 "http://www.w3.org/TR/2001/REC-SVG-20010904/DTD/svg10.dtd">
<svg version="1.0" xmlns="http://www.w3.org/2000/svg"
 width="225.000000pt" height="225.000000pt" viewBox="0 0 225.000000 225.000000"
 preserveAspectRatio="xMidYMid meet">

<g transform="translate(0.000000,225.000000) scale(0.100000,-0.100000)"
fill="#000000" stroke="none">
<path d="M1038 1798 l-3 -82 -38 -8 c-95 -20 -179 -87 -221 -177 -17 -37 -21
-65 -21 -146 1 -88 4 -106 27 -150 39 -75 110 -135 236 -199 129 -66 153 -93
160 -171 4 -50 -13 -105 -38 -120 -20 -12 -59 47 -71 106 l-12 59 -174 0 -175
0 6 -47 c27 -190 116 -297 274 -328 l32 -7 0 -79 0 -79 115 0 115 0 0 80 c0
71 2 80 18 80 75 0 185 78 230 164 24 46 27 62 27 156 0 110 -11 145 -68 222
-35 48 -225 167 -240 151 -4 -3 -43 24 -89 61 -46 36 -91 66 -101 66 -26 0
-19 -7 87 -90 52 -41 95 -78 96 -82 0 -5 -15 -8 -34 -8 -27 0 -53 15 -132 79
l-99 79 -3 -75 c-2 -64 -5 -73 -17 -63 -11 9 -15 36 -15 106 l0 94 94 0 93 0
7 39 c8 51 31 71 51 45 8 -10 17 -31 20 -46 3 -16 8 -42 11 -58 l6 -30 171 2
172 3 -3 45 c-10 153 -97 274 -224 312 l-38 11 0 84 0 83 -115 0 -114 0 -3
-82z m112 -92 c-8 -8 -57 -48 -108 -90 -68 -55 -88 -76 -73 -76 12 0 69 38
127 85 59 47 110 85 115 85 5 0 9 -11 9 -25 0 -19 -17 -39 -71 -82 l-70 -58
65 -3 c47 -2 66 -7 66 -16 0 -18 -54 -26 -187 -26 l-113 0 0 33 c0 18 7 42 15
53 14 19 14 18 15 -4 0 -19 13 -12 101 58 55 44 105 80 112 80 7 0 6 -5 -3
-14z m233 -174 c7 -30 -26 -49 -49 -28 -8 8 -9 15 -2 24 6 6 7 12 2 12 -5 0
-3 4 5 9 19 12 38 4 44 -17z m102 -120 c-2 -9 -4 -20 -4 -23 -1 -9 -31 -7 -32
3 -4 28 -4 34 5 40 15 10 34 -2 31 -20z m-212 -320 c4 -18 -9 -35 -31 -39 -7
-2 -13 0 -13 5 -6 33 -5 51 2 46 5 -3 9 -1 9 5 0 16 28 1 33 -17z m159 -67 c0
-5 -5 -11 -11 -13 -6 -2 -11 4 -11 13 0 9 5 15 11 13 6 -2 11 -8 11 -13z m-37
-163 c-2 -9 -4 -22 -4 -29 -1 -15 -38 -5 -45 13 -7 17 21 45 38 38 8 -3 13
-13 11 -22z m-355 -118 c0 -11 6 -13 20 -9 18 6 20 3 15 -18 -5 -18 -2 -28 12
-36 17 -10 16 -10 -4 -11 -18 0 -23 -6 -23 -27 0 -26 -1 -26 -17 -11 -15 16
-17 16 -29 0 -12 -15 -13 -14 -14 11 0 21 -5 27 -22 27 -23 1 -23 1 -3 16 17
13 18 17 6 36 -12 19 -11 20 13 14 22 -5 26 -3 26 14 0 12 5 18 10 15 6 -3 10
-13 10 -21z"/>
<path d="M1080 1346 c0 -2 7 -6 15 -10 8 -3 15 -1 15 4 0 6 -7 10 -15 10 -8 0
-15 -2 -15 -4z"/>
</g>
</svg>
