<svg xmlns="http://www.w3.org/2000/svg" width="16.457" height="18.808" viewBox="0 0 16.457 18.808">
  <path id="Icon_awesome-building" data-name="Icon awesome-building" d="M16.016,17.633h-.735V.882A.882.882,0,0,0,14.4,0H2.057a.882.882,0,0,0-.882.882V17.633H.441A.441.441,0,0,0,0,18.073v.735H16.457v-.735A.441.441,0,0,0,16.016,17.633ZM4.7,2.792a.441.441,0,0,1,.441-.441H6.612a.441.441,0,0,1,.441.441V4.261a.441.441,0,0,1-.441.441H5.143A.441.441,0,0,1,4.7,4.261Zm0,3.527a.441.441,0,0,1,.441-.441H6.612a.441.441,0,0,1,.441.441V7.788a.441.441,0,0,1-.441.441H5.143A.441.441,0,0,1,4.7,7.788Zm1.91,5.437H5.143a.441.441,0,0,1-.441-.441V9.845A.441.441,0,0,1,5.143,9.4H6.612a.441.441,0,0,1,.441.441v1.469A.441.441,0,0,1,6.612,11.755ZM9.4,17.633H7.053V14.547a.441.441,0,0,1,.441-.441H8.963a.441.441,0,0,1,.441.441Zm2.351-6.318a.441.441,0,0,1-.441.441H9.845a.441.441,0,0,1-.441-.441V9.845A.441.441,0,0,1,9.845,9.4h1.469a.441.441,0,0,1,.441.441Zm0-3.527a.441.441,0,0,1-.441.441H9.845A.441.441,0,0,1,9.4,7.788V6.318a.441.441,0,0,1,.441-.441h1.469a.441.441,0,0,1,.441.441Zm0-3.527a.441.441,0,0,1-.441.441H9.845A.441.441,0,0,1,9.4,4.261V2.792a.441.441,0,0,1,.441-.441h1.469a.441.441,0,0,1,.441.441Z" fill="#6221bd"/>
</svg>
