<svg id="Group_250" data-name="Group 250" xmlns="http://www.w3.org/2000/svg" xmlns:xlink="http://www.w3.org/1999/xlink" width="16.124" height="13.296" viewBox="0 0 16.124 13.296">
  <defs>
    <clipPath id="clip-path">
      <rect id="Rectangle_1162" data-name="Rectangle 1162" width="16.124" height="13.296" fill="#fff"/>
    </clipPath>
  </defs>
  <g id="Group_250-2" data-name="Group 250" transform="translate(0 0)" clip-path="url(#clip-path)">
    <path id="Path_436" data-name="Path 436" d="M.326,6.278H14.785L9.771.718a.389.389,0,0,1,0-.589.376.376,0,0,1,.564,0l5.679,6.279a.409.409,0,0,1,0,.561l-5.679,6.176a.34.34,0,0,1-.564,0,.359.359,0,0,1,0-.561l5.083-5.565H.326A.326.326,0,0,1,0,6.693V6.6a.326.326,0,0,1,.325-.326" transform="translate(-0.001 0)" fill="#391E60"/>
  </g>
</svg>
