<svg xmlns="http://www.w3.org/2000/svg" xmlns:xlink="http://www.w3.org/1999/xlink" width="38.154" height="31" viewBox="0 0 38.154 31">
  <defs>
    <clipPath id="clip-path">
      <path id="Path_435" data-name="Path 435" d="M37.984,41.251a7.053,7.053,0,0,0-7.164,6.918v5.606l.014.087.4.122A33.728,33.728,0,0,0,40.975,55.5a20.606,20.606,0,0,0,8.506-1.542l.374-.182h.04V48.169a7.051,7.051,0,0,0-7.163-6.918Zm-9.819-5.578A7.052,7.052,0,0,0,21,42.591V48.2l.015.086.4.122a34.675,34.675,0,0,0,8.068,1.464V48.177a8.267,8.267,0,0,1,6.082-7.866A6.558,6.558,0,0,1,33.438,35.7c-.175-.012-.348-.026-.526-.026Zm19.113,0a6.55,6.55,0,0,1-2.129,4.638,8.265,8.265,0,0,1,6.082,7.866V49.9a19.821,19.821,0,0,0,7.509-1.523l.374-.182h.04V42.591a7.053,7.053,0,0,0-7.165-6.918Zm-12.516-.192a5.6,5.6,0,1,0,5.6-5.4,5.5,5.5,0,0,0-5.6,5.4M24.943,29.9a5.5,5.5,0,0,0,5.6,5.4,5.711,5.711,0,0,0,2.976-.834,6.642,6.642,0,0,1,2.6-4.264c.005-.1.015-.2.015-.3a5.6,5.6,0,0,0-11.191,0m19.081-.084a6.68,6.68,0,0,1,3.227,4.974,5.735,5.735,0,0,0,2.364.511,5.406,5.406,0,1,0-5.591-5.485" fill="none"/>
    </clipPath>
    <linearGradient id="linear-gradient" x1="-0.068" y1="1.198" x2="-0.054" y2="1.198" gradientUnits="objectBoundingBox">
      <stop offset="0" stop-color="#f0ffaa"/>
      <stop offset="0.51" stop-color="#c9ebfd"/>
      <stop offset="1" stop-color="#ffb9c9"/>
    </linearGradient>
  </defs>
  <g id="Group_239" data-name="Group 239" transform="translate(-21 -24.5)">
    <g id="Group_238" data-name="Group 238" clip-path="url(#clip-path)">
      <path id="Path_434" data-name="Path 434" d="M4.8,48.188,50.154,68.661l25.2-36.849L30,11.339Z" fill="url(#linear-gradient)"/>
    </g>
  </g>
</svg>
