<svg xmlns="http://www.w3.org/2000/svg" xmlns:xlink="http://www.w3.org/1999/xlink" width="38" height="38" viewBox="0 0 38 38">
  <defs>
    <clipPath id="clip-path">
      <path id="Path_432" data-name="Path 432" d="M28.917,51.288v-2.58a2.983,2.983,0,0,1,.726-1.8A3.661,3.661,0,0,0,30.5,44.75c0-1.51-1.363-1.663-2.1-1.745a2.207,2.207,0,0,1-1.3-.4,4.989,4.989,0,0,1-.658-1.018,6.094,6.094,0,0,0-2.228-2.572A15.841,15.841,0,0,1,40,24.167c.434,0,.862.03,1.288.064a1.672,1.672,0,0,0-.264.168.788.788,0,0,0-.232.582.8.8,0,0,0,.265.569,2.1,2.1,0,0,1,.35.38c-.018.038-.163.286-.974.7-1.337.679-2.881,2.066-3.111,3.51a1.93,1.93,0,0,0,.535,1.715.792.792,0,0,0,.56.231,6.189,6.189,0,0,0,2.771-.8,6.006,6.006,0,0,1,2.771-.784c3.107,0,5.541.7,5.541,1.583,0,.326-.1.426-.139.463-.39.382-1.714.358-2.879.34-.308-.006-.623-.011-.94-.011a3.435,3.435,0,0,1-1.794-.339,4.307,4.307,0,0,0-2.164-.453,7.658,7.658,0,0,0-5.31,1.815,4.425,4.425,0,0,0-1.066,3.858c.021.235.042.457.042.66,0,1.56,1.593,2.376,3.167,2.376,2.42,0,4.511.451,4.75.791a4.582,4.582,0,0,0,.475,1.977,2.767,2.767,0,0,1,.317,1.19.8.8,0,0,1-.218.64,2.49,2.49,0,0,0-.574,1.735c0,1.666,1.6,3.494,1.786,3.7a.794.794,0,0,0,.589.261.773.773,0,0,0,.2-.024c.466-.12,4.554-1.245,4.554-3.934a1.509,1.509,0,0,1,.659-1.415,2.16,2.16,0,0,0,.924-1.751c0-.636,1.126-2.274,2.17-3.428a.792.792,0,0,0-.1-1.157,10.084,10.084,0,0,1-2.884-3.537,4.558,4.558,0,0,1,1.047.764,1.317,1.317,0,0,0,1.019.376A4.124,4.124,0,0,0,55.251,35.8,15.813,15.813,0,0,1,28.917,51.288M21,40A19,19,0,1,0,40,21,19.022,19.022,0,0,0,21,40" fill="none"/>
    </clipPath>
    <linearGradient id="linear-gradient" x1="-0.247" y1="1.247" x2="-0.228" y2="1.247" gradientUnits="objectBoundingBox">
      <stop offset="0" stop-color="#f0ffaa"/>
      <stop offset="0.51" stop-color="#c9ebfd"/>
      <stop offset="1" stop-color="#ffb9c9"/>
    </linearGradient>
  </defs>
  <g id="Group_234" data-name="Group 234" transform="translate(-21 -21)">
    <g id="Group_233" data-name="Group 233" clip-path="url(#clip-path)">
      <rect id="Rectangle_1157" data-name="Rectangle 1157" width="53.542" height="53.542" transform="translate(2.279 43.244) rotate(-49.915)" fill="url(#linear-gradient)"/>
    </g>
  </g>
</svg>
