<svg xmlns="http://www.w3.org/2000/svg" width="18.799" height="14.621" viewBox="0 0 18.799 14.621">
  <path id="Icon_awesome-credit-card" data-name="Icon awesome-credit-card" d="M0,14.3a1.567,1.567,0,0,0,1.567,1.567H17.232A1.567,1.567,0,0,0,18.8,14.3V8.561H0Zm6.266-2.219a.393.393,0,0,1,.392-.392H11.1a.393.393,0,0,1,.392.392v1.305a.393.393,0,0,1-.392.392H6.658a.393.393,0,0,1-.392-.392Zm-4.178,0a.393.393,0,0,1,.392-.392H4.83a.393.393,0,0,1,.392.392v1.305a.393.393,0,0,1-.392.392H2.48a.393.393,0,0,1-.392-.392ZM18.8,2.817V4.383H0V2.817A1.567,1.567,0,0,1,1.567,1.25H17.232A1.567,1.567,0,0,1,18.8,2.817Z" transform="translate(0 -1.25)" fill="#6221bd"/>
</svg>
