<svg xmlns="http://www.w3.org/2000/svg" width="15" height="16.667" viewBox="0 0 15 16.667">
  <path id="Icon_material-date-range" data-name="Icon material-date-range" d="M7.5,9.167H5.833v1.667H7.5Zm3.333,0H9.167v1.667h1.667Zm3.333,0H12.5v1.667h1.667Zm1.667-5.833H15V1.667H13.333V3.333H6.667V1.667H5V3.333H4.167A1.659,1.659,0,0,0,2.508,5L2.5,16.667a1.666,1.666,0,0,0,1.667,1.667H15.833A1.672,1.672,0,0,0,17.5,16.667V5A1.672,1.672,0,0,0,15.833,3.333Zm0,13.333H4.167V7.5H15.833v9.167Z" transform="translate(-2.5 -1.667)" fill="#6221bd"/>
</svg>
