<svg xmlns="http://www.w3.org/2000/svg" width="20.252" height="15.748" viewBox="0 0 20.252 15.748">
  <path id="Icon_awesome-home" data-name="Icon awesome-home" d="M9.857,5.212,3.375,10.551v5.762a.563.563,0,0,0,.563.563l3.94-.01a.562.562,0,0,0,.56-.562V12.938A.562.562,0,0,1,9,12.375h2.25a.562.562,0,0,1,.563.563V16.3a.562.562,0,0,0,.563.564l3.938.011a.563.563,0,0,0,.563-.562V10.547l-6.48-5.335A.429.429,0,0,0,9.857,5.212ZM20.1,8.841,17.156,6.418V1.549a.422.422,0,0,0-.422-.422H14.766a.422.422,0,0,0-.422.422V4.1L11.2,1.512a1.687,1.687,0,0,0-2.145,0L.153,8.841A.422.422,0,0,0,.1,9.435l.9,1.09a.422.422,0,0,0,.594.057L9.857,3.771a.429.429,0,0,1,.538,0l8.27,6.811a.422.422,0,0,0,.594-.056l.9-1.09a.422.422,0,0,0-.06-.6Z" transform="translate(0.001 -1.127)" fill="#6221bd"/>
</svg>
