<svg xmlns="http://www.w3.org/2000/svg" width="32.154" height="32.154" viewBox="0 0 32.154 32.154">
  <path id="Icon_awesome-bitcoin" data-name="Icon awesome-bitcoin" d="M32.716,16.639A16.077,16.077,0,1,1,16.639.563,16.077,16.077,0,0,1,32.716,16.639Zm-9.183-2.29c.32-2.139-1.309-3.289-3.536-4.056l.723-2.9-1.764-.44-.7,2.821c-.464-.116-.94-.225-1.413-.333l.708-2.84-1.763-.44-.723,2.9c-.384-.087-.761-.174-1.126-.265l0-.009L11.5,8.18l-.469,1.884s1.309.3,1.281.318a.939.939,0,0,1,.822,1.026l-.823,3.3a1.463,1.463,0,0,1,.183.059l-.186-.046-1.154,4.625a.642.642,0,0,1-.808.419c.018.026-1.282-.32-1.282-.32l-.876,2.019,2.3.572c.427.107.846.219,1.258.325l-.73,2.931,1.762.44.723-2.9q.7.19,1.406.365l-.721,2.886,1.764.44.73-2.925c3.008.569,5.27.34,6.222-2.381.767-2.19-.038-3.454-1.621-4.278a2.813,2.813,0,0,0,2.253-2.59ZM19.5,20c-.545,2.19-4.234,1.006-5.43.709l.969-3.883c1.2.3,5.031.889,4.461,3.174Zm.546-5.683c-.5,1.992-3.567.98-4.563.732l.878-3.522C17.359,11.776,20.567,12.239,20.049,14.317Z" transform="translate(-0.563 -0.563)" fill="#fff"/>
</svg>
