<svg xmlns="http://www.w3.org/2000/svg" width="19.258" height="19.258" viewBox="0 0 19.258 19.258">
  <g id="Icon_ionic-logo-instagram" data-name="Icon ionic-logo-instagram" transform="translate(-2.5 -2.5)">
    <path id="Path_307" data-name="Path 307" d="M16.141,4.1a4.024,4.024,0,0,1,4.012,4.012v8.024a4.024,4.024,0,0,1-4.012,4.012H8.117A4.024,4.024,0,0,1,4.1,16.141V8.117A4.024,4.024,0,0,1,8.117,4.1h8.024m0-1.6H8.117A5.633,5.633,0,0,0,2.5,8.117v8.024a5.633,5.633,0,0,0,5.617,5.617h8.024a5.633,5.633,0,0,0,5.617-5.617V8.117A5.633,5.633,0,0,0,16.141,2.5Z" transform="translate(0 0)" fill="#fff"/>
    <path id="Path_308" data-name="Path 308" d="M14.329,7.407a1.2,1.2,0,1,1,1.2-1.2A1.2,1.2,0,0,1,14.329,7.407Z" transform="translate(3.016 0.71)" fill="#fff"/>
    <path id="Path_309" data-name="Path 309" d="M11.064,7.855a3.21,3.21,0,1,1-3.21,3.21,3.213,3.213,0,0,1,3.21-3.21m0-1.6a4.814,4.814,0,1,0,4.814,4.814A4.816,4.816,0,0,0,11.064,6.25Z" transform="translate(1.064 1.064)" fill="#fff"/>
  </g>
</svg>
