<svg id="Group_208" data-name="Group 208" xmlns="http://www.w3.org/2000/svg" xmlns:xlink="http://www.w3.org/1999/xlink" width="190.516" height="49.328" viewBox="0 0 190.516 49.328">
  <defs>
    <clipPath id="clip-path">
      <rect id="Rectangle_1138" data-name="Rectangle 1138" width="190.516" height="49.328" fill="none"/>
    </clipPath>
  </defs>
  <g id="Group_207" data-name="Group 207" clip-path="url(#clip-path)">
    <path id="Path_356" data-name="Path 356" d="M30.688,35.857,21.9,39.682v-.366a26.315,26.315,0,0,1-5.372.773c-8.262-.081-14.815-4.4-14.9-9.524V28.653c2.686,3.948,8.262,6.593,14.9,6.471A21.7,21.7,0,0,0,23,34.351l.773-1.913a24.484,24.484,0,0,1-7.245,1.14c-8.262.041-14.815-4.273-14.9-9.524V22.507c2.686,3.663,8.221,6.268,14.9,6.146a17.91,17.91,0,0,0,8.384-1.547l.366-1.913a18.258,18.258,0,0,1-8.791,1.913c-8.262.122-14.815-4.192-14.9-9.524V16.036c2.686,3.744,8.262,6.349,14.9,6.471a24.783,24.783,0,0,0,10.338-2.645l.366-2.279A19.761,19.761,0,0,1,16.524,21c-8.3-.2-14.855-4.518-14.937-9.931.081-5.128,6.634-9.483,14.9-9.524,4.925.081,9.483,1.831,12.21,4.6l.285.407h1.913L30.606,6.1C27.879,2.442,22.466,0,16.443,0,7.326,0,0,5.047,0,11.07V30.932c.326,5.9,7.448,10.7,16.443,10.7,6.024-.041,11.355-2.4,14.245-5.779" fill="#7d7d7d"/>
    <path id="Path_357" data-name="Path 357" d="M50.885,58.282l3.093-13.105-8.873,3.866,5.413-22.751H40.1L42.786,15.1h33.17L73.27,26.292H62.485l-2.32,6.186,11.966-5.006ZM56.3,42.45l-1.547,7.692L67.491,30.851l-10.419,4.64,4.64-10.785H72.131l1.913-8.1H43.966l-1.913,8.1H52.473L47.467,46.276Z" transform="translate(-23.779 -8.954)" fill="#7d7d7d"/>
    <path id="Path_358" data-name="Path 358" d="M165.154,22.033a4.124,4.124,0,0,1-.366,1.587,4.379,4.379,0,0,1-.977,1.3,4.758,4.758,0,0,1-3.256,1.058,4.325,4.325,0,0,1-3.5-1.465,6.059,6.059,0,0,1-1.262-4.111v-.692a6.614,6.614,0,0,1,.57-2.93,4.582,4.582,0,0,1,1.669-1.954,5.264,5.264,0,0,1,2.93-.651,5.4,5.4,0,0,1,2.808,1.058,4.484,4.484,0,0,1,1.424,3.012h-2.361a2.382,2.382,0,0,0-.611-1.628,2.346,2.346,0,0,0-1.628-.488,1.835,1.835,0,0,0-1.018.2,2.012,2.012,0,0,0-.773.651,4.618,4.618,0,0,0-.61,2.645v.855a5.136,5.136,0,0,0,.57,2.727,1.715,1.715,0,0,0,.773.651,2.173,2.173,0,0,0,1.018.2,2.287,2.287,0,0,0,1.628-.488,2.185,2.185,0,0,0,.61-1.547Z" transform="translate(-92.382 -8.398)" fill="#7d7d7d"/>
    <path id="Path_359" data-name="Path 359" d="M191.6,20.386a6.291,6.291,0,0,1-.611,2.971,4.785,4.785,0,0,1-1.709,1.994,5.1,5.1,0,0,1-5.128,0A4.5,4.5,0,0,1,182.4,23.4a6.651,6.651,0,0,1-.611-2.93V19.9a7.128,7.128,0,0,1,.611-3.012,4.6,4.6,0,0,1,1.75-1.994,5.1,5.1,0,0,1,5.128,0,4.88,4.88,0,0,1,1.75,1.994,6.826,6.826,0,0,1,.611,2.971v.529Zm-2.4-.529a4.8,4.8,0,0,0-.651-2.768,2.243,2.243,0,0,0-.814-.692,2.334,2.334,0,0,0-1.018-.244,2.09,2.09,0,0,0-1.018.244,2.243,2.243,0,0,0-.814.692,4.657,4.657,0,0,0-.651,2.727v.57a4.927,4.927,0,0,0,.651,2.727,2.243,2.243,0,0,0,.814.692,2.415,2.415,0,0,0,2.116,0,2.243,2.243,0,0,0,.814-.692,4.987,4.987,0,0,0,.651-2.727v-.529Z" transform="translate(-107.801 -8.421)" fill="#7d7d7d"/>
    <rect id="Rectangle_1137" data-name="Rectangle 1137" width="2.361" height="11.518" transform="translate(85.673 5.901)" fill="#7d7d7d"/>
    <path id="Path_360" data-name="Path 360" d="M231.12,26.018H228.76l-4.6-7.57v7.57H221.8V14.5h2.361l4.64,7.57V14.5h2.361V26.018Z" transform="translate(-131.528 -8.599)" fill="#7d7d7d"/>
    <path id="Path_361" data-name="Path 361" d="M256.92,16.513h-3.541v9.605h-2.32V16.513H247.6V14.6h9.361v1.913Z" transform="translate(-146.827 -8.658)" fill="#7d7d7d"/>
    <path id="Path_362" data-name="Path 362" d="M280.76,21.112H276.2v3.093h5.332v1.913H273.8V14.6h7.692v1.913h-5.332V19.24h4.558v1.872Z" transform="translate(-162.364 -8.658)" fill="#7d7d7d"/>
    <path id="Path_363" data-name="Path 363" d="M298.661,24.105h5.047v1.913H296.3V14.5h2.361Z" transform="translate(-175.706 -8.599)" fill="#7d7d7d"/>
    <path id="Path_364" data-name="Path 364" d="M324.66,21.112H320.1v3.093h5.332v1.913H317.7V14.6h7.692v1.913h-5.332V19.24h4.558v1.872Z" transform="translate(-188.397 -8.658)" fill="#7d7d7d"/>
    <path id="Path_365" data-name="Path 365" d="M348.953,24.409a3.748,3.748,0,0,1-1.791,1.18,6.994,6.994,0,0,1-2.6.407,4.777,4.777,0,0,1-2.6-.651,4.2,4.2,0,0,1-1.75-1.913,6.032,6.032,0,0,1-.611-2.93v-.773a6.79,6.79,0,0,1,.57-2.971,4.252,4.252,0,0,1,1.669-1.913,4.728,4.728,0,0,1,2.564-.651,4.818,4.818,0,0,1,3.215.977,4.236,4.236,0,0,1,1.384,2.849h-2.32a2.259,2.259,0,0,0-.692-1.465,2.143,2.143,0,0,0-1.506-.448,2.341,2.341,0,0,0-1.058.2A2.242,2.242,0,0,0,342.6,17a4.835,4.835,0,0,0-.651,2.686v.733a4.555,4.555,0,0,0,.692,2.727,2.232,2.232,0,0,0,.9.733,2.192,2.192,0,0,0,1.14.2,2.752,2.752,0,0,0,1.913-.57V21.52h-2.157v-1.75h4.518Z" transform="translate(-201.376 -8.414)" fill="#7d7d7d"/>
    <path id="Path_366" data-name="Path 366" d="M371.533,21.885h-1.872v4.233H367.3V14.6h4.273a4.792,4.792,0,0,1,3.134.9,3.362,3.362,0,0,1,.855,1.14,2.859,2.859,0,0,1,.244,1.424,3.294,3.294,0,0,1-.529,1.954,3.61,3.61,0,0,1-1.547,1.262L376.213,26v.122h-2.564Zm-1.872-1.954h1.913a1.9,1.9,0,0,0,1.384-.448,1.707,1.707,0,0,0,.366-.57,1.9,1.9,0,0,0,.122-.692,4.009,4.009,0,0,0-.081-.692,2.428,2.428,0,0,0-.366-.61,2.064,2.064,0,0,0-.651-.366,1.626,1.626,0,0,0-.773-.081h-1.913Z" transform="translate(-217.81 -8.658)" fill="#7d7d7d"/>
    <path id="Path_367" data-name="Path 367" d="M397.748,23.657H393.6l-.773,2.361H390.3L394.573,14.5h2.2l4.314,11.518h-2.523Zm-3.5-1.913h2.89l-1.465-4.314Z" transform="translate(-231.449 -8.599)" fill="#7d7d7d"/>
    <path id="Path_368" data-name="Path 368" d="M421.861,22.048v4.07H419.5V14.6h4.477a5.6,5.6,0,0,1,2.279.488,3.688,3.688,0,0,1,1.506,1.343,3.855,3.855,0,0,1,.529,1.994,3.048,3.048,0,0,1-.285,1.465,3.145,3.145,0,0,1-.9,1.18,4.818,4.818,0,0,1-3.215.977Zm0-1.954h2.116a2,2,0,0,0,1.424-.448,2.889,2.889,0,0,0,.407-.57,1.9,1.9,0,0,0,.122-.692,2.3,2.3,0,0,0-.122-.733,2.064,2.064,0,0,0-.366-.651,1.772,1.772,0,0,0-.651-.407,2.3,2.3,0,0,0-.733-.122H421.9v3.622Z" transform="translate(-248.764 -8.658)" fill="#7d7d7d"/>
    <path id="Path_369" data-name="Path 369" d="M454.461,26.018H452.1V21.093h-4.64v4.925H445.1V14.5h2.361v4.68h4.64V14.5h2.361Z" transform="translate(-263.945 -8.599)" fill="#7d7d7d"/>
    <path id="Path_370" data-name="Path 370" d="M162.614,70.787h-2.93v7.977H157.69V70.787H154.8V69.2h7.814Z" transform="translate(-91.797 -41.036)" fill="#7d7d7d"/>
    <path id="Path_371" data-name="Path 371" d="M178.213,71.526a2.785,2.785,0,0,1,.855-.692,2.374,2.374,0,0,1,1.058-.244c1.547,0,2.32.9,2.361,2.686v4.558h-1.913V73.317a1.359,1.359,0,0,0-.244-.9.845.845,0,0,0-.407-.244,1,1,0,0,0-.488-.041,1.338,1.338,0,0,0-.692.163,1.524,1.524,0,0,0-.529.488v5.047H176.3V67.7h1.913Z" transform="translate(-104.546 -40.146)" fill="#7d7d7d"/>
    <path id="Path_372" data-name="Path 372" d="M197.782,82.352a3.936,3.936,0,0,1-1.384-.2,3.211,3.211,0,0,1-1.18-.733,3.306,3.306,0,0,1-.773-1.18,3.963,3.963,0,0,1-.244-1.384v-.2a4.494,4.494,0,0,1,.407-1.913,3.025,3.025,0,0,1,1.18-1.3,2.971,2.971,0,0,1,1.75-.448,2.664,2.664,0,0,1,1.262.2,2.753,2.753,0,0,1,1.058.733,3.721,3.721,0,0,1,.855,2.6V79.3h-4.518a1.807,1.807,0,0,0,.57,1.14,1.56,1.56,0,0,0,1.18.407,2.111,2.111,0,0,0,.977-.2,2.24,2.24,0,0,0,.773-.611l.936,1.058a2.831,2.831,0,0,1-1.14.936,5.085,5.085,0,0,1-1.709.326m-.2-5.861a2.043,2.043,0,0,0-.488.081,1.462,1.462,0,0,0-.407.285,2.182,2.182,0,0,0-.448,1.1h2.645v-.163a1.656,1.656,0,0,0-.326-.977,1.681,1.681,0,0,0-.448-.285,2.5,2.5,0,0,0-.529-.041" transform="translate(-115.161 -44.46)" fill="#7d7d7d"/>
    <path id="Path_373" data-name="Path 373" d="M220.858,77.75V72.011H219.8V70.627h1.058v-.61A2.231,2.231,0,0,1,221.021,69a2.324,2.324,0,0,1,.529-.855,2.74,2.74,0,0,1,1.913-.651,4.014,4.014,0,0,1,.977.122v1.465a1.355,1.355,0,0,0-.57-.041c-.733,0-1.058.326-1.058,1.017v.57h1.424v1.384h-1.465V77.75Z" transform="translate(-130.342 -40.021)" fill="#7d7d7d"/>
    <path id="Path_374" data-name="Path 374" d="M237.266,81.69a2.184,2.184,0,0,1-.855.651,2.341,2.341,0,0,1-1.058.2,2.374,2.374,0,0,1-.936-.122,2.544,2.544,0,0,1-.814-.529,2.707,2.707,0,0,1-.611-1.913V75.3h1.913v4.6c0,.733.326,1.1,1.018,1.1a1.716,1.716,0,0,0,.773-.122,1.2,1.2,0,0,0,.57-.529V75.3h1.913v7.122h-1.791Z" transform="translate(-138.162 -44.653)" fill="#7d7d7d"/>
    <path id="Path_375" data-name="Path 375" d="M252.99,70.9v1.75h1.221v1.384H252.99v3.541a.934.934,0,0,0,.163.57.656.656,0,0,0,.285.163.794.794,0,0,0,.326.041,2.687,2.687,0,0,0,.57-.041v1.424a3.676,3.676,0,0,1-1.14.163,1.81,1.81,0,0,1-2.035-2.035V74.034H250.1V72.65h1.058V70.9Z" transform="translate(-148.31 -42.044)" fill="#7d7d7d"/>
    <path id="Path_376" data-name="Path 376" d="M267.066,81.69a2.184,2.184,0,0,1-.855.651,2.341,2.341,0,0,1-1.058.2,2.374,2.374,0,0,1-.936-.122,2.544,2.544,0,0,1-.814-.529,2.707,2.707,0,0,1-.611-1.913V75.3h1.913v4.6c0,.733.326,1.1,1.018,1.1a1.716,1.716,0,0,0,.773-.122,1.2,1.2,0,0,0,.57-.529V75.3h1.913v7.122h-1.791Z" transform="translate(-155.834 -44.653)" fill="#7d7d7d"/>
    <path id="Path_377" data-name="Path 377" d="M285.329,76.861a3.949,3.949,0,0,0-.692-.041,1.413,1.413,0,0,0-1.424.733v4.68H281.3V75.111h1.791l.041.855a2.23,2.23,0,0,1,.651-.733,1.544,1.544,0,0,1,.936-.244,3.141,3.141,0,0,1,.611.081Z" transform="translate(-166.811 -44.464)" fill="#7d7d7d"/>
    <path id="Path_378" data-name="Path 378" d="M295.982,82.352a3.936,3.936,0,0,1-1.384-.2,3.211,3.211,0,0,1-1.18-.733,3.306,3.306,0,0,1-.773-1.18,3.964,3.964,0,0,1-.244-1.384v-.2a4.494,4.494,0,0,1,.407-1.913,3.025,3.025,0,0,1,1.18-1.3,2.97,2.97,0,0,1,1.75-.448,2.664,2.664,0,0,1,1.262.2,2.753,2.753,0,0,1,1.058.733,3.721,3.721,0,0,1,.855,2.6V79.3h-4.558a1.806,1.806,0,0,0,.57,1.14,1.56,1.56,0,0,0,1.18.407,2.111,2.111,0,0,0,.977-.2,2.24,2.24,0,0,0,.773-.611l.936,1.058a2.831,2.831,0,0,1-1.14.936,4.86,4.86,0,0,1-1.669.326m-.244-5.861a2.043,2.043,0,0,0-.488.081,1.462,1.462,0,0,0-.407.285,2.183,2.183,0,0,0-.448,1.1h2.646v-.163a1.656,1.656,0,0,0-.326-.977,1.68,1.68,0,0,0-.448-.285,2.15,2.15,0,0,0-.529-.041" transform="translate(-173.394 -44.46)" fill="#7d7d7d"/>
    <path id="Path_379" data-name="Path 379" d="M318.6,78.522a4.193,4.193,0,0,1,.407-1.872,3.025,3.025,0,0,1,1.18-1.3,3.351,3.351,0,0,1,1.791-.448,3.287,3.287,0,0,1,1.262.2,3.137,3.137,0,0,1,1.1.692,3.572,3.572,0,0,1,1.017,2.4v.488a3.871,3.871,0,0,1-.9,2.645,3.447,3.447,0,0,1-2.442.977,3.554,3.554,0,0,1-2.442-.977,3.814,3.814,0,0,1-.936-2.686v-.122Zm1.872.163a2.572,2.572,0,0,0,.366,1.547,1.628,1.628,0,0,0,.488.407,3.392,3.392,0,0,0,.611.163,1.633,1.633,0,0,0,.611-.122,1.2,1.2,0,0,0,.488-.407,3.129,3.129,0,0,0,.407-1.709,2.6,2.6,0,0,0-.407-1.547,1.2,1.2,0,0,0-.488-.407,1.587,1.587,0,0,0-1.221,0,1.2,1.2,0,0,0-.488.407,3.25,3.25,0,0,0-.366,1.669" transform="translate(-188.93 -44.416)" fill="#7d7d7d"/>
    <path id="Path_380" data-name="Path 380" d="M337.758,77.75V72.011H336.7V70.627h1.058v-.61A2.231,2.231,0,0,1,337.921,69a2.324,2.324,0,0,1,.529-.855,2.74,2.74,0,0,1,1.913-.651,4.014,4.014,0,0,1,.977.122v1.465a1.355,1.355,0,0,0-.57-.041c-.733,0-1.058.326-1.058,1.017v.57h1.425v1.384h-1.425V77.75Z" transform="translate(-199.664 -40.021)" fill="#7d7d7d"/>
    <path id="Path_381" data-name="Path 381" d="M359.872,75.066l.041.814a2.943,2.943,0,0,1,.9-.692,2.192,2.192,0,0,1,1.14-.2,1.7,1.7,0,0,1,1.1.244,1.969,1.969,0,0,1,.773.855,2.238,2.238,0,0,1,.936-.814,2.071,2.071,0,0,1,1.221-.244,2.374,2.374,0,0,1,.936.122,2.022,2.022,0,0,1,.773.529,3.3,3.3,0,0,1,.57,2.035V82.27h-1.913V77.712a1.211,1.211,0,0,0-.244-.9,1.036,1.036,0,0,0-.855-.285,1.18,1.18,0,0,0-.733.2,1.33,1.33,0,0,0-.448.61v4.884h-1.913V77.671a1.165,1.165,0,0,0-.244-.9,1.912,1.912,0,0,0-.366-.244.846.846,0,0,0-.448-.041,1.338,1.338,0,0,0-.692.163,1.237,1.237,0,0,0-.488.529v5.047H358V75.107h1.872Z" transform="translate(-212.295 -44.46)" fill="#7d7d7d"/>
    <path id="Path_382" data-name="Path 382" d="M386.1,78.522a4.194,4.194,0,0,1,.407-1.872,3.025,3.025,0,0,1,1.18-1.3,3.351,3.351,0,0,1,1.791-.448,3.287,3.287,0,0,1,1.262.2,3.137,3.137,0,0,1,1.1.692,3.572,3.572,0,0,1,1.017,2.4v.488a3.871,3.871,0,0,1-.9,2.645,3.447,3.447,0,0,1-2.442.977,3.63,3.63,0,0,1-2.442-.977,3.814,3.814,0,0,1-.936-2.686v-.122Zm1.913.163a2.572,2.572,0,0,0,.366,1.547,1.629,1.629,0,0,0,.488.407,3.392,3.392,0,0,0,.611.163,1.1,1.1,0,0,0,.61-.122,1.2,1.2,0,0,0,.488-.407,3.13,3.13,0,0,0,.407-1.709,2.6,2.6,0,0,0-.407-1.547,1.2,1.2,0,0,0-.488-.407,1.587,1.587,0,0,0-1.221,0,1.2,1.2,0,0,0-.488.407,2.89,2.89,0,0,0-.366,1.669" transform="translate(-228.958 -44.416)" fill="#7d7d7d"/>
    <path id="Path_383" data-name="Path 383" d="M407.35,74.947l.041.814a2.544,2.544,0,0,1,.9-.733,2.731,2.731,0,0,1,1.14-.244,2.476,2.476,0,0,1,.936.122,2.022,2.022,0,0,1,.773.529,3.106,3.106,0,0,1,.57,1.994v4.6h-1.913V77.47a1.359,1.359,0,0,0-.244-.9,3.578,3.578,0,0,0-.407-.244.88.88,0,0,0-.448-.041,1.338,1.338,0,0,0-.692.163,1.034,1.034,0,0,0-.488.529v5.047H405.6V74.906h1.75Z" transform="translate(-240.522 -44.341)" fill="#7d7d7d"/>
    <path id="Path_384" data-name="Path 384" d="M427.082,82.352a3.936,3.936,0,0,1-1.384-.2,3.211,3.211,0,0,1-1.18-.733,3.306,3.306,0,0,1-.773-1.18,3.963,3.963,0,0,1-.244-1.384v-.2a4.494,4.494,0,0,1,.407-1.913,3.026,3.026,0,0,1,1.18-1.3,2.971,2.971,0,0,1,1.75-.448,2.664,2.664,0,0,1,1.262.2,2.754,2.754,0,0,1,1.058.733,3.721,3.721,0,0,1,.855,2.6V79.3h-4.558a1.807,1.807,0,0,0,.57,1.14,1.56,1.56,0,0,0,1.18.407,2.111,2.111,0,0,0,.977-.2,2.239,2.239,0,0,0,.773-.611l.936,1.058a2.831,2.831,0,0,1-1.14.936,5.05,5.05,0,0,1-1.669.326m-.244-5.861a2.044,2.044,0,0,0-.488.081,1.462,1.462,0,0,0-.407.285,2.182,2.182,0,0,0-.448,1.1h2.645v-.163a1.656,1.656,0,0,0-.326-.977,1.682,1.682,0,0,0-.448-.285,2.32,2.32,0,0,0-.529-.041" transform="translate(-251.136 -44.46)" fill="#7d7d7d"/>
    <path id="Path_385" data-name="Path 385" d="M443.537,79.636l1.3-4.436h2.035l-2.849,8.221-.163.366a2.221,2.221,0,0,1-.814,1.018,2.285,2.285,0,0,1-1.262.366,3.1,3.1,0,0,1-.855-.122V83.625h.285a1.822,1.822,0,0,0,.814-.163,1.042,1.042,0,0,0,.407-.529l.244-.57L440.2,75.2h2.035Z" transform="translate(-261.039 -44.594)" fill="#7d7d7d"/>
  </g>
</svg>
