<svg xmlns="http://www.w3.org/2000/svg" xmlns:xlink="http://www.w3.org/1999/xlink" width="159.675" height="22.432" viewBox="0 0 159.675 22.432">
  <defs>
    <clipPath id="clip-path">
      <rect id="Rectangle_1136" data-name="Rectangle 1136" width="159.675" height="22.432" fill="none"/>
    </clipPath>
  </defs>
  <g id="Group_206" data-name="Group 206" transform="translate(-0.056)">
    <g id="Group_205" data-name="Group 205" transform="translate(0.056 0)" clip-path="url(#clip-path)">
      <path id="Path_346" data-name="Path 346" d="M185.225,15.791a6.909,6.909,0,0,0-7.313-7.321,7.251,7.251,0,0,0-7.508,7.568,7.339,7.339,0,0,0,7.508,7.653,8.763,8.763,0,0,0,4.379-1.105,5.961,5.961,0,0,0,2.807-3.656h-3.054a4.152,4.152,0,0,1-3.971,2,4.312,4.312,0,0,1-4.447-3.9h11.565c.033-.544.033-.884.033-1.233m-11.632-1.454a4.4,4.4,0,0,1,8.451,0h-8.451Z" transform="translate(-25.551 -1.267)" fill="#7d7d7d"/>
      <path id="Path_347" data-name="Path 347" d="M11.638,17.955a4.389,4.389,0,1,1,.05-3.614h3.4a7.652,7.652,0,1,0,0,3.614H11.638Z" transform="translate(-0.048 -1.271)" fill="#7d7d7d"/>
      <path id="Path_348" data-name="Path 348" d="M30.365,9.116A6.842,6.842,0,0,0,27.3,8.47a5.7,5.7,0,0,0-3.079.944V8.988H21.1V23.18h3.145v-6.8a11.41,11.41,0,0,1,.2-2.764v-.068a2.418,2.418,0,0,1,.446-.827,2.389,2.389,0,0,1,.729-.593,3.165,3.165,0,0,1,3.4,0Z" transform="translate(-3.205 -1.267)" fill="#7d7d7d"/>
      <path id="Path_349" data-name="Path 349" d="M44.335,9.08v6.8a11.368,11.368,0,0,1-.2,2.764v.068a2.4,2.4,0,0,1-1.156,1.412,3.165,3.165,0,0,1-3.4,0,2.4,2.4,0,0,1-1.156-1.412v-.068a11.368,11.368,0,0,1-.2-2.764V9.08H35.092v7.738a9.478,9.478,0,0,0,.536,3.733A4.8,4.8,0,0,0,38.179,23.1a6.842,6.842,0,0,0,3.061.646,5.692,5.692,0,0,0,3.078-.944v.468h3.1V9.08Z" transform="translate(-5.297 -1.359)" fill="#7d7d7d"/>
      <path id="Path_350" data-name="Path 350" d="M57.3,23.188v-6.8a11.315,11.315,0,0,1,.213-2.772v-.068a2.4,2.4,0,0,1,1.156-1.412,3.165,3.165,0,0,1,3.4,0,2.4,2.4,0,0,1,1.156,1.412v.068a11.349,11.349,0,0,1,.179,2.772v6.8h3.121V15.45a9.47,9.47,0,0,0-.51-3.733,4.8,4.8,0,0,0-2.551-2.551A6.844,6.844,0,0,0,60.4,8.52a5.692,5.692,0,0,0-3.078.944V9.038H54.176v14.15Z" transform="translate(-8.156 -1.275)" fill="#7d7d7d"/>
      <path id="Path_351" data-name="Path 351" d="M83.677,17.955a4.39,4.39,0,1,1,.05-3.614h3.4a7.653,7.653,0,1,0,0,3.614H83.677Z" transform="translate(-10.83 -1.271)" fill="#7d7d7d"/>
      <path id="Path_352" data-name="Path 352" d="M96.287,21.913v-6.8a11.325,11.325,0,0,1,.195-2.764v-.068a2.4,2.4,0,0,1,1.173-1.42,3.165,3.165,0,0,1,3.4,0,2.4,2.4,0,0,1,1.156,1.412v.068a11.368,11.368,0,0,1,.2,2.764v6.8h3.121V14.167a9.493,9.493,0,0,0-.535-3.733,4.8,4.8,0,0,0-2.551-2.551,6.856,6.856,0,0,0-3.061-.646A5.7,5.7,0,0,0,96.3,8.18V0H93.165V21.913Z" transform="translate(-13.991 0)" fill="#7d7d7d"/>
      <path id="Path_353" data-name="Path 353" d="M119.632,7.2h-.561A7.543,7.543,0,0,0,115.33,8.52V0h-3.1V21.913h3.121v-.8A7.653,7.653,0,1,0,119.632,7.2m4.388,8.2v.136a3.845,3.845,0,0,1-.332,1.088v.068a4.414,4.414,0,0,1-3.07,2.406l-.417.068h-.094a4.448,4.448,0,0,1-.476,0,4.36,4.36,0,0,1-.6-.043H118.9a4.33,4.33,0,0,1-1.114-.34H117.7a4.245,4.245,0,0,1-1.76-1.59,4.475,4.475,0,0,1-.647-2.356,4.388,4.388,0,0,1,3.938-4.293,4.422,4.422,0,0,1,4.787,4.269,4.505,4.505,0,0,1,0,.587" transform="translate(-16.844 0)" fill="#7d7d7d"/>
      <path id="Path_354" data-name="Path 354" d="M165.417,13.229v-.068c0-2.313-1.778-4.668-5.74-4.711s-5.681,2.33-5.732,4.609v.17c.085,1.335.85,3.036,3.809,3.733l2.636.6c.681.153,1.838.536,1.93,1.4,0,1.2-1.539,1.828-2.644,1.828-1.275,0-2.645-.706-2.645-1.837v-.068h-3.088v.043c0,2.313,1.777,4.668,5.74,4.711s5.74-2.389,5.74-4.711v-.043c-.068-1.352-.8-3.078-3.809-3.775l-2.636-.6c-.577-.128-1.93-.519-1.93-1.378,0-1.344,1.369-1.82,2.645-1.82s2.645.706,2.645,1.837v.077h3.079Z" transform="translate(-23.088 -1.265)" fill="#7d7d7d"/>
      <path id="Path_355" data-name="Path 355" d="M132.9,16.089a7.653,7.653,0,0,0,11.9,6.292v.808h3.121V9h-3.1v.85a7.543,7.543,0,0,0-3.741-1.318h-.561a7.652,7.652,0,0,0-7.619,7.559m3.224,0a4.388,4.388,0,1,1,8.41,1.718,4.45,4.45,0,0,1-.281.544,4.245,4.245,0,0,1-1.76,1.59H142.4a4.38,4.38,0,0,1-1.115.34h-.136a4.5,4.5,0,0,1-.6.043,4.448,4.448,0,0,1-.476,0h-.06l-.417-.068a4.413,4.413,0,0,1-3-2.389V17.8a3.844,3.844,0,0,1-.332-1.088v-.136a4.211,4.211,0,0,1-.152-.485" transform="translate(-19.938 -1.277)" fill="#7d7d7d"/>
    </g>
  </g>
</svg>
