<svg xmlns="http://www.w3.org/2000/svg" xmlns:xlink="http://www.w3.org/1999/xlink" width="145" height="23" viewBox="0 0 145 23">
  <defs>
    <clipPath id="clip-path">
      <rect id="Rectangle_1147" data-name="Rectangle 1147" width="145" height="23" transform="translate(-0.007 0)" fill="none"/>
    </clipPath>
  </defs>
  <g id="Group_223" data-name="Group 223" transform="translate(0.007 0)">
    <g id="Group_222" data-name="Group 222" transform="translate(0 0)" clip-path="url(#clip-path)">
      <path id="Path_421" data-name="Path 421" d="M12.124,9.02H8.632v7.953c0,1.358.776,1.649,2.037,1.649.485,0,.97-.1,1.455-.1V22.7c-1.067,0-2.134.194-3.1.194-4.849,0-6.11-1.455-6.11-6.207V9.02H0V5.237H2.91V0H8.632V5.237h3.492Zm5.043,6.4c.1,2.425,1.455,3.977,3.88,3.977a3.574,3.574,0,0,0,3.3-1.94h5.334c-.97,4.074-4.752,5.819-8.632,5.819-5.722,0-9.6-3.395-9.6-9.311a9.192,9.192,0,0,1,9.408-9.214c6.3,0,9.408,4.752,9.117,10.669Zm7.08-3.2a3.544,3.544,0,0,0-3.395-3.589c-2.037,0-3.395,1.455-3.686,3.589Zm18.331-.582a2.7,2.7,0,0,0-2.813-2.522c-3.2,0-3.686,2.716-3.686,5.14,0,2.231.97,4.558,3.395,4.558,2.037,0,3.007-1.164,3.3-3.007H48.3c-.485,4.752-4.074,7.468-8.729,7.468-5.237,0-9.214-3.589-9.214-8.923,0-5.528,3.492-9.5,9.214-9.5,4.365,0,8.244,2.328,8.632,6.886H42.578ZM48.494,0h5.722V7.662h.1a6.156,6.156,0,0,1,5.334-2.91c5.819,0,6.3,4.268,6.3,6.789V22.792H60.23V14.354c0-2.425.291-4.849-2.91-4.849-2.134,0-3.1,1.843-3.1,3.783v9.5H48.494ZM66.437,5.237h5.528v3.1h.1A5.29,5.29,0,0,1,77.3,4.946a6.4,6.4,0,0,1,1.358.1v5.237a8.806,8.806,0,0,0-2.231-.291A3.993,3.993,0,0,0,72.16,14.16v8.632H66.437Zm12.221,5.431a5.217,5.217,0,0,1,2.716-4.655A11.6,11.6,0,0,1,86.9,4.752c4.171,0,8.147.873,8.147,5.819v7.662a10.028,10.028,0,0,0,.679,4.461H90.006a4.926,4.926,0,0,1-.291-1.649A7.735,7.735,0,0,1,83.9,23.277c-3.3,0-6.013-1.649-6.013-5.334,0-5.722,6.207-5.237,10.184-6.11.97-.194,1.552-.582,1.552-1.649,0-1.358-1.552-1.843-2.813-1.843a2.616,2.616,0,0,0-2.91,2.231H78.658Zm7.371,9.117c2.716,0,3.686-1.552,3.492-5.14-.776.485-2.328.582-3.492.97-1.261.291-2.328.873-2.328,2.231s1.067,1.94,2.328,1.94m27.545,3.007h-5.431V20.756h-.1a5.529,5.529,0,0,1-4.752,2.522c-5.528,0-7.856-4.752-7.856-9.6,0-4.558,2.425-8.826,7.371-8.826a5.659,5.659,0,0,1,4.946,2.425h.1V0h5.722Zm-12.415-8.923c0,2.425.873,5.043,3.492,5.043,2.813,0,3.395-2.619,3.395-4.849,0-2.522-.873-4.849-3.395-4.849-2.619-.1-3.492,2.425-3.492,4.655m13.287-3.2a5.217,5.217,0,0,1,2.716-4.655,11.6,11.6,0,0,1,5.528-1.261c4.171,0,8.147.873,8.147,5.819v7.662a10.028,10.028,0,0,0,.679,4.461h-5.722a4.927,4.927,0,0,1-.291-1.649,7.877,7.877,0,0,1-5.819,2.231c-3.3,0-6.013-1.649-6.013-5.334,0-5.722,6.207-5.237,10.184-6.11.97-.194,1.552-.582,1.552-1.649,0-1.358-1.552-1.843-2.813-1.843a2.616,2.616,0,0,0-2.91,2.231h-5.237Zm7.371,9.117c2.716,0,3.686-1.552,3.492-5.14-.776.485-2.328.582-3.492.97-1.261.291-2.328.873-2.328,2.231-.1,1.358,1.067,1.94,2.328,1.94m9.893-14.548h5.528v3.1h.1a5.29,5.29,0,0,1,5.237-3.395,13,13,0,0,1,1.94.1v5.237A12.928,12.928,0,0,0,141.8,9.99a3.993,3.993,0,0,0-4.268,4.171v8.632h-5.722V5.237Z" transform="translate(0 0)" fill="#7d7d7d"/>
      <rect id="Rectangle_1146" data-name="Rectangle 1146" width="5.722" height="5.722" transform="translate(138.791 17.07)" fill="#7d7d7d"/>
    </g>
  </g>
</svg>
