<svg xmlns="http://www.w3.org/2000/svg" xmlns:xlink="http://www.w3.org/1999/xlink" width="145" height="44" viewBox="0 0 145 44">
  <defs>
    <clipPath id="clip-path">
      <rect id="Rectangle_1144" data-name="Rectangle 1144" width="145" height="44" transform="translate(-0.007 0)" fill="none"/>
    </clipPath>
  </defs>
  <g id="Group_218" data-name="Group 218" transform="translate(0.007 -0.281)">
    <g id="Group_217" data-name="Group 217" transform="translate(0 0.282)" clip-path="url(#clip-path)">
      <path id="Path_410" data-name="Path 410" d="M11.262,45.046H14.64V27.028H11.262Zm12.388-.282h2.956v-11.4L39.275,45.046V27.309H36.319V38.43l-12.669-11.4ZM46.173,40.4a9.535,9.535,0,0,0,5.772,1.971c2.112,0,3.519-.7,3.519-2.252,0-1.408-.985-1.971-2.534-2.534l-2.675-.845c-2.393-.845-4.223-2.112-4.223-4.927,0-3.1,2.815-4.786,6.053-4.786a10.782,10.782,0,0,1,5.349,1.408v3.1a8.364,8.364,0,0,0-5.208-1.83c-1.83,0-3.238.7-3.238,2.112,0,1.267.845,1.83,2.393,2.252l2.956.985c2.815.985,4.082,2.534,4.082,5.068,0,3.238-2.815,4.927-6.475,4.927A10.831,10.831,0,0,1,46.173,43.5ZM66.3,45.046h3.378V27.028H66.3Zm19.145-2.675c3.8,0,5.772-2.393,5.772-6.335S89.248,29.7,85.447,29.7h-3.8V42.231a35.592,35.592,0,0,0,3.8.141M78.69,27.028h6.9c5.349,0,8.728,3.519,8.728,9.009s-3.519,9.009-8.728,9.009h-6.9Zm32.518,0V29.7h-8.165v4.364h7.32v2.675h-7.32v5.631h8.165v2.675H99.947V27.028Zm11.965,8.165h3.378c1.971,0,3.1-1.126,3.1-2.815s-1.126-2.815-3.1-2.815h-3.378Zm0,2.534v7.32h-2.956V27.028h6.475c3.66,0,6.053,1.83,6.053,5.349,0,2.956-1.267,4.786-4.082,5.208L135,45.046H131.62l-6.194-7.32ZM9.995,9.291a4.074,4.074,0,0,0,2.393-3.942c0-3.378-2.393-5.068-6.053-5.068H0V18.863H6.9c3.8,0,6.053-1.83,6.053-5.349A4.272,4.272,0,0,0,9.995,9.291M2.956,8.165V3.1H6.335c2.112,0,3.238.7,3.238,2.534S8.305,8.165,6.335,8.165Zm0,2.534H6.9c2.112,0,3.238.985,3.238,2.675s-1.126,2.675-3.1,2.675H2.956Zm23.79,8.446c4.364,0,7.179-2.534,7.179-7.6V.282H30.969V11.121c0,3.519-1.408,5.208-4.223,5.208s-4.223-1.689-4.223-5.208V.282h-3.1V11.4c.141,5.208,3.1,7.742,7.32,7.742M41.1,17.455a10.794,10.794,0,0,0,5.772,1.689c3.66,0,6.475-1.83,6.475-5.208,0-2.675-1.267-4.364-4.082-5.349L46.313,7.461C44.765,6.9,43.92,6.335,43.92,5.068c0-1.548,1.408-2.252,3.1-2.252a8.172,8.172,0,0,1,5.208,1.971V1.548A9.239,9.239,0,0,0,46.876,0C43.5,0,40.823,1.83,40.823,5.068c0,3.1,1.83,4.364,4.223,5.349l2.815.845c1.548.563,2.534,1.267,2.534,2.675,0,1.689-1.408,2.393-3.519,2.393A9.681,9.681,0,0,1,41.1,14.218ZM64.191.282h-3.1V18.863h3.1Zm8.728,18.582h2.956V6.757L88.263,19.145V.282H85.307V12.106L72.919,0ZM107.267.282V3.1H99.384V7.6h7.039v2.675H99.384v5.772h7.883v2.815H96.287V.282Zm7.179,17.174a10.794,10.794,0,0,0,5.772,1.689c3.66,0,6.475-1.83,6.475-5.208-.141-2.675-1.408-4.364-4.223-5.49L119.514,7.32c-1.548-.563-2.393-1.126-2.393-2.393,0-1.548,1.408-2.252,3.1-2.252a8.172,8.172,0,0,1,5.208,1.971v-3.1A9.239,9.239,0,0,0,120.077,0c-3.378,0-6.053,1.83-6.053,5.068,0,3.1,1.83,4.364,4.223,5.349l2.815.845c1.548.563,2.534,1.267,2.534,2.675,0,1.689-1.408,2.393-3.519,2.393a9.681,9.681,0,0,1-5.772-2.112,24.918,24.918,0,0,1,.141,3.238m18.441,0a10.794,10.794,0,0,0,5.772,1.689c3.66,0,6.475-1.83,6.475-5.208,0-2.675-1.267-4.364-4.082-5.349l-3.1-1.126c-1.548-.563-2.393-1.126-2.393-2.393,0-1.548,1.408-2.252,3.1-2.252a8.172,8.172,0,0,1,5.208,1.971V1.548A9.239,9.239,0,0,0,138.518,0c-3.378,0-6.053,1.83-6.053,5.068,0,3.1,1.83,4.364,4.223,5.349l2.815.845c1.548.563,2.534,1.267,2.534,2.675,0,1.689-1.408,2.393-3.519,2.393a9.681,9.681,0,0,1-5.772-2.112,24.921,24.921,0,0,1,.141,3.238" transform="translate(0 -0.298)" fill="#7d7d7d" fill-rule="evenodd"/>
    </g>
  </g>
</svg>
