<svg xmlns="http://www.w3.org/2000/svg" xmlns:xlink="http://www.w3.org/1999/xlink" width="80" height="35" viewBox="0 0 80 35">
  <defs>
    <clipPath id="clip-path">
      <rect id="Rectangle_1140" data-name="Rectangle 1140" width="80" height="35" transform="translate(0.207 0)" fill="none"/>
    </clipPath>
  </defs>
  <g id="Group_212" data-name="Group 212" transform="translate(-0.207 -0.082)">
    <g id="Group_211" data-name="Group 211" transform="translate(0 0.082)" clip-path="url(#clip-path)">
      <path id="Path_389" data-name="Path 389" d="M25.586.044c0-.016-6.9,0-6.9,0C8.473.044.193,7.823.193,17.418s8.28,17.374,18.493,17.374l12.973-.01a5.716,5.716,0,0,0,5.9-5.525l.007-10.6,8.967,13.288a6.893,6.893,0,0,0,5.659,2.862,6.583,6.583,0,0,0,6.778-6.368l0-9.782,8.967,13.288A6.894,6.894,0,0,0,73.6,34.809a6.583,6.583,0,0,0,6.778-6.368l0-28.414H75.758V28.442A2.1,2.1,0,0,1,73.6,30.473a2.2,2.2,0,0,1-1.793-.9L55.843,5.959a.814.814,0,0,0-.406-.291.869.869,0,0,0-.511-.008.819.819,0,0,0-.416.278.738.738,0,0,0-.159.456l.005,22.048a2.1,2.1,0,0,1-2.162,2.031,2.2,2.2,0,0,1-1.793-.9L34.441,5.959a.815.815,0,0,0-.406-.291.868.868,0,0,0-.511-.008.819.819,0,0,0-.416.278.738.738,0,0,0-.159.456l0,22.863a1.248,1.248,0,0,1-1.285,1.208l-12.973-.009c-7.664,0-13.877-5.837-13.877-13.038S11.022,4.38,18.686,4.38l6.9,0Z" transform="translate(-0.18 -0.1)" fill="#7d7d7d"/>
      <path id="Path_390" data-name="Path 390" d="M107.753,24.861a.68.68,0,0,0,.465-.181.6.6,0,0,0,.193-.437l0-17.875A6.582,6.582,0,0,1,115.19,0a6.891,6.891,0,0,1,5.672,2.881L129.8,16.05l.016-9.682A6.582,6.582,0,0,1,136.592,0a6.891,6.891,0,0,1,5.672,2.881L151.2,16.05V0h4.645l-.008,28.414a.738.738,0,0,1-.154.449.819.819,0,0,1-.405.28.869.869,0,0,1-.5,0,.82.82,0,0,1-.411-.272L138.384,5.232a2.2,2.2,0,0,0-1.793-.9,2.1,2.1,0,0,0-2.162,2.031l.005,22.048a.738.738,0,0,1-.155.449.817.817,0,0,1-.4.28.869.869,0,0,1-.5,0,.819.819,0,0,1-.411-.272L116.983,5.232a2.2,2.2,0,0,0-1.793-.9,2.1,2.1,0,0,0-2.162,2.031l.01,22.223a.6.6,0,0,1-.193.437.68.68,0,0,1-.465.181l-12.271,0c-6.922,0-12.533-5.311-12.533-11.814S93.187,5.578,100.109,5.578c0,0,6.9-.025,6.9,0v4.38l-6.9,0a7.689,7.689,0,0,0-7.917,7.438,7.721,7.721,0,0,0,7.917,7.477Z" transform="translate(-81.603 -0.074)" fill="#7d7d7d"/>
    </g>
  </g>
</svg>
