<svg xmlns="http://www.w3.org/2000/svg" xmlns:xlink="http://www.w3.org/1999/xlink" width="173.467" height="33.654" viewBox="0 0 173.467 33.654">
  <defs>
    <clipPath id="clip-path">
      <rect id="Rectangle_1139" data-name="Rectangle 1139" width="173.467" height="33.654" fill="none"/>
    </clipPath>
  </defs>
  <g id="Group_210" data-name="Group 210" transform="translate(0 0)">
    <g id="Group_209" data-name="Group 209" transform="translate(0 0)" clip-path="url(#clip-path)">
      <path id="Path_386" data-name="Path 386" d="M16.5,18.446A1.646,1.646,0,1,0,18.146,16.8,1.639,1.639,0,0,0,16.5,18.446M30.4,16.8a1.646,1.646,0,1,0,1.646,1.646A1.639,1.639,0,0,0,30.4,16.8m0,12.436a1.646,1.646,0,1,0,1.646,1.646A1.639,1.639,0,0,0,30.4,29.236" transform="translate(-1.412 -1.438)" fill="#7d7d7d"/>
      <path id="Path_387" data-name="Path 387" d="M32.462,1.748a4.421,4.421,0,0,0-6.31-.549l-.183.183-.366.274a4.319,4.319,0,0,1-5.669-.274,4.07,4.07,0,0,0-1.92-1.1c-.091,0-.274-.091-.366-.091H16a.336.336,0,0,0-.274.091h-.366c-.091,0-.183.091-.274.091A.09.09,0,0,0,15,.468c-.091,0-.183.091-.274.091a.09.09,0,0,0-.091.091c-.091.091-.183.091-.274.183a.09.09,0,0,0-.091.091c-.091.091-.183.091-.274.183L13.9,1.2l-.183.183-.366.274a4.068,4.068,0,0,1-5.487-.274.09.09,0,0,1-.091-.091L7.133,1.2A4.088,4.088,0,0,0,5.029.194H3.2c0,.091-.091.091-.183.183A3.36,3.36,0,0,0,1.555,1.2l-.091.091-.274.274A4.222,4.222,0,0,0,.366,2.937c0,.091-.091.183-.091.274s-.091.183-.091.366a5.361,5.361,0,0,0,.091,2.1c0,.091.091.183.091.274v.091c0,.091.091.183.091.274.091.091.091.183.183.366.183.091.366.274.549.366l.183.183.183.183a4.169,4.169,0,0,1-.091,5.852A4.58,4.58,0,0,0,.823,14c-.091.091-.091.183-.183.366v.091c-.091.091-.091.183-.183.274v.091c0,.091-.091.183-.091.274v.091a.336.336,0,0,1-.091.274v1.555a.336.336,0,0,0,.091.274v.091A4.538,4.538,0,0,0,1.555,19.4a4.2,4.2,0,0,1,0,5.944l-.091.091-.183.183v.091c-.091.091-.183.183-.183.274a.09.09,0,0,1-.091.091c-.274.914-.274,1.006-.366,1.1l-.091.091c0,.091-.091.091-.091.183s-.091.091-.091.183,0,.091-.091.183A3.341,3.341,0,0,0,0,29.181V30c.091.274.091.64.274.823a.319.319,0,0,0,.091.183.09.09,0,0,0,.091.091c0,.091.091.183.091.274a.09.09,0,0,0,.091.091,1.262,1.262,0,0,0,.274.366.09.09,0,0,0,.091.091.09.09,0,0,0,.091.091.09.09,0,0,0,.091.091l.091.091c.091.091.183.091.183.183l.091.091a.09.09,0,0,1,.091.091c.091.091.183.183.274.183a.09.09,0,0,1,.091.091c.091.091.183.091.274.183h.091c.091.091.183.091.366.091.091,0,.274.091.366.091H3.2a.336.336,0,0,1,.274.091h.914c.274,0,.549-.091.823-.091H5.3c.091,0,.183-.091.274-.091h.091c.091,0,.183-.091.274-.091h.091l.732-.366.274-.274.091-.091a4.041,4.041,0,0,1,5.944,0,4.452,4.452,0,0,0,6.675-.274,4.526,4.526,0,0,0,0-5.4,4.421,4.421,0,0,0-6.31-.549l-.183.183-.366.274a4.319,4.319,0,0,1-5.669-.274l-.183-.183-.274-.366a4.319,4.319,0,0,1,.274-5.669,4.1,4.1,0,0,0,1.372-3.109,3.609,3.609,0,0,0-1.189-2.743c0-.091-.091-.091-.091-.183l-.274-.366a4.319,4.319,0,0,1,.274-5.669l.091-.091.091-.091a4.041,4.041,0,0,1,5.944,0l.091.091.091.091.183.183c.091,0,.091.091.183.091s.091.091.183.091.091.091.183.091.091.091.183.091.091.091.183.091.091.091.183.091.091,0,.183.091c.091,0,.091,0,.183.091h1.737a.336.336,0,0,0,.274-.091h.183c.091,0,.183-.091.274-.091h.091c.091,0,.183-.091.366-.183a4.922,4.922,0,0,0,1.1-.823L19.2,7.6a4.041,4.041,0,0,1,5.944,0,4.285,4.285,0,0,0,6.584-.183,4.125,4.125,0,0,0,.732-5.669" transform="translate(0 -0.011)" fill="#7d7d7d"/>
      <path id="Path_388" data-name="Path 388" d="M59.828,14.448A6.4,6.4,0,0,0,58,13.076a5.609,5.609,0,0,0-2.286-.549,4.7,4.7,0,0,0-2.286.549,3.694,3.694,0,0,0-1.555,1.372,5.721,5.721,0,0,0-.914,1.829,8.863,8.863,0,0,0-.274,2.1,5.365,5.365,0,0,0,.366,2.1,5.419,5.419,0,0,0,1.006,1.737A3.658,3.658,0,0,0,53.7,23.409a5.365,5.365,0,0,0,2.1.366,4.454,4.454,0,0,0,2.286-.549,4.8,4.8,0,0,0,1.737-1.372l2.1,2.286a6.837,6.837,0,0,1-2.743,1.92,9.689,9.689,0,0,1-3.383.64,8.707,8.707,0,0,1-3.475-.64,7.772,7.772,0,0,1-4.389-4.389A10.66,10.66,0,0,1,47.3,18.2a8.92,8.92,0,0,1,2.378-6.218,7.428,7.428,0,0,1,2.652-1.737A10.66,10.66,0,0,1,55.8,9.6a8.266,8.266,0,0,1,3.383.64,7.44,7.44,0,0,1,2.835,1.92Zm6.95,3.841a6,6,0,0,0,.366,2.286A5.006,5.006,0,0,0,68.149,22.4a2.943,2.943,0,0,0,1.646,1.1,6,6,0,0,0,2.286.366,6.314,6.314,0,0,0,2.286-.366,7.37,7.37,0,0,0,1.646-1.1,5.889,5.889,0,0,0,1.006-1.829,9.194,9.194,0,0,0,.366-2.286A6,6,0,0,0,77.019,16a5.006,5.006,0,0,0-1.006-1.829,2.943,2.943,0,0,0-1.646-1.1,6,6,0,0,0-2.286-.366,6.314,6.314,0,0,0-2.286.366,7.37,7.37,0,0,0-1.646,1.1A5.889,5.889,0,0,0,67.143,16a9.194,9.194,0,0,0-.366,2.286m-3.292,0a8.266,8.266,0,0,1,.64-3.383,7.606,7.606,0,0,1,1.829-2.743A6.9,6.9,0,0,1,68.7,10.333,9.675,9.675,0,0,1,72.081,9.6a6.826,6.826,0,0,1,3.383.732,7.606,7.606,0,0,1,2.743,1.829,9,9,0,0,1,1.829,2.743,9.689,9.689,0,0,1,.64,3.383,8.266,8.266,0,0,1-.64,3.383,7.606,7.606,0,0,1-1.829,2.743,9.063,9.063,0,0,1-6.127,2.56,7.054,7.054,0,0,1-3.383-.732,7.606,7.606,0,0,1-2.743-1.829,8.023,8.023,0,0,1-1.829-2.743,13.846,13.846,0,0,1-.64-3.383m20.392,8.23h3.109V10.15H83.877ZM83.145,4.206a2.347,2.347,0,0,1,.64-1.646,2.278,2.278,0,0,1,1.555-.732,1.82,1.82,0,0,1,1.555.732,2.438,2.438,0,0,1,.64,1.646,2.347,2.347,0,0,1-.64,1.646,2.278,2.278,0,0,1-1.555.732,1.82,1.82,0,0,1-1.555-.732,2.074,2.074,0,0,1-.64-1.646m8.047,5.944H94.3v2.56h.091a3.77,3.77,0,0,1,2.012-2.1,6.4,6.4,0,0,1,3.383-.823,6.314,6.314,0,0,1,2.286.366,4.1,4.1,0,0,1,1.829,1.1,7.959,7.959,0,0,1,1.372,1.92A8.678,8.678,0,0,1,105.823,16V26.518h-3.109v-9.6A5.7,5.7,0,0,0,102.44,15a4.963,4.963,0,0,0-.823-1.372,2.626,2.626,0,0,0-1.189-.732,6.363,6.363,0,0,0-1.463-.183,5.324,5.324,0,0,0-1.737.274,3.83,3.83,0,0,0-1.463,1.006,3.9,3.9,0,0,0-.914,1.737,10.2,10.2,0,0,0-.274,2.469v8.5H91.467V10.15Zm25.97,13.808a6.314,6.314,0,0,0,2.286-.366,5.857,5.857,0,0,0,1.737-1.189,5.889,5.889,0,0,0,1.006-1.829,9.266,9.266,0,0,0,.366-2.378,6.818,6.818,0,0,0-.366-2.378,5.006,5.006,0,0,0-1.006-1.829,4.543,4.543,0,0,0-1.737-1.189,7.327,7.327,0,0,0-4.572,0,5.857,5.857,0,0,0-1.737,1.189,5.889,5.889,0,0,0-1.006,1.829,9.266,9.266,0,0,0-.366,2.378,6.819,6.819,0,0,0,.366,2.378,5.006,5.006,0,0,0,1.006,1.829,3.484,3.484,0,0,0,1.737,1.189,8.548,8.548,0,0,0,2.286.366m8.5,2.469h-3.109V24.049h-.091A5.884,5.884,0,0,1,120,26.061a6.7,6.7,0,0,1-3.292.732,8.707,8.707,0,0,1-3.475-.64,6.6,6.6,0,0,1-2.652-1.829,7.106,7.106,0,0,1-1.646-2.743,9.69,9.69,0,0,1-.64-3.383,8.707,8.707,0,0,1,.64-3.475,8.443,8.443,0,0,1,1.646-2.743,6.6,6.6,0,0,1,2.652-1.829,9.811,9.811,0,0,1,3.475-.64,6.929,6.929,0,0,1,3.292.732,6.489,6.489,0,0,1,2.377,2.012h.091V0h3.109V26.427Zm15.637-9.51a6.079,6.079,0,0,0-.274-1.92,4.375,4.375,0,0,0-.914-1.555,5.9,5.9,0,0,0-1.463-1.006,6.575,6.575,0,0,0-2.012-.366,4.652,4.652,0,0,0-2.012.366,6.467,6.467,0,0,0-1.646,1.1,3.824,3.824,0,0,0-1.006,1.555,5.982,5.982,0,0,0-.366,1.646h9.876Zm-9.784,2.56a3.381,3.381,0,0,0,.549,1.92,5.026,5.026,0,0,0,1.189,1.555,6.324,6.324,0,0,0,1.737.914,8.155,8.155,0,0,0,2.012.274,4.2,4.2,0,0,0,2.56-.732,5.743,5.743,0,0,0,1.92-1.737l2.378,1.829a8.6,8.6,0,0,1-7.224,3.383,8.136,8.136,0,0,1-3.475-.64,6.6,6.6,0,0,1-2.652-1.829,6.5,6.5,0,0,1-1.646-2.743,9.689,9.689,0,0,1-.64-3.383,8.266,8.266,0,0,1,.64-3.383,8.714,8.714,0,0,1,1.737-2.743,7.657,7.657,0,0,1,2.652-1.829,9.689,9.689,0,0,1,3.383-.64,7.464,7.464,0,0,1,6.127,2.652,9.881,9.881,0,0,1,1.463,2.743,11.833,11.833,0,0,1,.366,3.2v1.1H131.519Zm25.147-5.212a5.567,5.567,0,0,0-1.372-1.1,4.287,4.287,0,0,0-1.92-.549,3.381,3.381,0,0,0-1.92.549,1.418,1.418,0,0,0-.823,1.372,1.106,1.106,0,0,0,.549,1.1,4.6,4.6,0,0,0,1.1.732,6.016,6.016,0,0,0,1.372.366,9.6,9.6,0,0,0,1.189.183,5.4,5.4,0,0,1,1.829.64,4.375,4.375,0,0,1,1.555.914,5.327,5.327,0,0,1,1.006,1.372,5.513,5.513,0,0,1,.366,1.92,4.029,4.029,0,0,1-.64,2.378,5.316,5.316,0,0,1-1.555,1.646,6.14,6.14,0,0,1-2.1.914,11.171,11.171,0,0,1-2.378.274,8.572,8.572,0,0,1-3.566-.64,5.778,5.778,0,0,1-2.743-2.286l2.378-1.92A11.906,11.906,0,0,0,150.63,23.5a4.476,4.476,0,0,0,2.286.64,5.214,5.214,0,0,0,1.189-.091,3.276,3.276,0,0,0,1.006-.366,2.465,2.465,0,0,0,.732-.64,1.764,1.764,0,0,0,.274-.914,1.6,1.6,0,0,0-.366-1.1,4.06,4.06,0,0,0-1.006-.732,5.915,5.915,0,0,0-1.189-.366l-1.189-.274a8.668,8.668,0,0,1-1.829-.549,6.214,6.214,0,0,1-1.555-.823,4.263,4.263,0,0,1-1.1-1.372,4.241,4.241,0,0,1-.366-1.92,4.7,4.7,0,0,1,.549-2.286,3.945,3.945,0,0,1,1.463-1.555,7.414,7.414,0,0,1,1.92-.914,9.765,9.765,0,0,1,2.286-.274,8,8,0,0,1,3.2.64,5.273,5.273,0,0,1,2.469,2.012ZM162.609.457h3.109V17.008l6.95-6.95h4.206l-7.5,7.407,8.138,8.778h-4.389l-7.407-8.413v8.413h-3.109Z" transform="translate(-4.048 0)" fill="#7d7d7d"/>
    </g>
  </g>
</svg>
