<svg id="Group_225" data-name="Group 225" xmlns="http://www.w3.org/2000/svg" xmlns:xlink="http://www.w3.org/1999/xlink" width="80.715" height="56.455" viewBox="0 0 80.715 56.455">
  <defs>
    <clipPath id="clip-path">
      <rect id="Rectangle_1148" data-name="Rectangle 1148" width="80.715" height="56.455" fill="none"/>
    </clipPath>
  </defs>
  <g id="Group_224" data-name="Group 224" clip-path="url(#clip-path)">
    <path id="Path_422" data-name="Path 422" d="M40.3,38.581H8.075A7.868,7.868,0,0,1,0,30.529Q0,19.284,0,8.037A7.871,7.871,0,0,1,8.028,0H72.67a7.828,7.828,0,0,1,8.009,7.866q.078,11.4,0,22.8a7.838,7.838,0,0,1-8.086,7.914H40.3ZM49.655,5.957H47.312v4.415H35.551v7.872h9.533V20.37h-9.6V30.463H31.115v2.156h6.662V22.68h.716c2.772,0,5.544-.01,8.317.009.466,0,.65-.1.641-.608-.03-1.869-.01-3.737-.014-5.606,0-.176-.032-.353-.054-.586H37.794V12.64h8.525c.944,0,1.89.012,2.833-.025.171-.006.479-.219.482-.34.03-2.091.021-4.181.021-6.315Zm-26.7,16.988V8.124h4.38V5.962H20.681V17.767L7.408,5.558V28.2H9.629V10.686ZM27.337,33.03V10.394h-2.2v17.52c-4.465-4.1-8.831-8.118-13.33-12.256V30.463H7.4v2.171h6.679v-11.8ZM73.327,5.969H57.74V8.154H71.024v2.205h-6.6V28.178h2.283V12.608h6.614V5.969ZM59.941,12.611V32.626h6.7V30.421H62.23v-20.1H55.554V5.95H53.288v6.661h6.654Zm-26.634-4.5H45.148V5.966H31.095V28.191h2.211V8.116ZM43.2,48.927v-5.64h3.889v12.67h-.332c-1.083,0-2.167-.007-3.249.006a.508.508,0,0,1-.487-.252q-1.765-2.587-3.55-5.161c-.076-.11-.154-.219-.289-.411v5.8H35.26v-.33q0-5.977-.006-11.953c0-.286.07-.38.364-.376,1.094.013,2.187.006,3.28-.009a.46.46,0,0,1,.436.23q1.782,2.575,3.578,5.142c.072.1.145.206.218.309Zm22.749,7.035c-1.276,0-2.53,0-3.785-.01-.093,0-.208-.12-.273-.213q-1.817-2.614-3.623-5.236c-.065-.093-.133-.184-.249-.345V55.94h-3.9V43.281H54.5c1.076,0,2.151,0,3.227-.015a.458.458,0,0,1,.438.225q1.8,2.6,3.627,5.2c.059.084.123.166.242.324V43.287h3.917ZM76.239,51.2H74.114V48.7h6.449a6.629,6.629,0,0,1-4.36,7.334A6.829,6.829,0,0,1,70.07,43.949a6.755,6.755,0,0,1,8.639.852l-2.921,2.668a2.62,2.62,0,0,0-2.451-.656,2.7,2.7,0,0,0-1.864,1.274,2.871,2.871,0,0,0,.957,3.994A2.837,2.837,0,0,0,76.24,51.2ZM4.316,52.39H9.491v3.572H.37v-12.7h9.1v3.478H4.309v1.169H9.365v3.206H4.316V52.39Zm20.337,3.571v-12.7h9.228v3.465H28.653V47.91h5.123v3.205H28.663v1.26H33.9v3.587H24.653Zm-.616-12.689c-.306.806-.586,1.545-.865,2.284Q21.265,50.6,19.365,55.64a.421.421,0,0,1-.478.322c-1.289-.015-2.579-.011-3.868,0a.324.324,0,0,1-.371-.241q-2.289-6.1-4.593-12.192c-.026-.067-.042-.138-.071-.232a1.007,1.007,0,0,1,.132-.02c1.29,0,2.579.006,3.868-.009.251,0,.271.157.328.307q1.257,3.32,2.511,6.642c.047.126.1.25.169.43.276-.721.532-1.39.788-2.06.636-1.669,1.277-3.335,1.9-5.009a.4.4,0,0,1,.459-.31c1.172.014,2.344.006,3.516.006h.381ZM52.511,55.962H48.69v-12.7h3.821Z" transform="translate(0)" fill="#7d7d7d"/>
  </g>
</svg>
