<svg xmlns="http://www.w3.org/2000/svg" xmlns:xlink="http://www.w3.org/1999/xlink" width="159" height="28.534" viewBox="0 0 159 28.534">
  <defs>
    <clipPath id="clip-path">
      <rect id="Rectangle_1145" data-name="Rectangle 1145" width="159" height="28.534" fill="none"/>
    </clipPath>
  </defs>
  <g id="Group_221" data-name="Group 221" transform="translate(0 0)">
    <path id="Path_411" data-name="Path 411" d="M43.4,10.377h5.018V23.341h3.095V10.377h5.018V7.7H43.4Z" transform="translate(-7.1 -1.26)" fill="#7d7d7d"/>
    <path id="Path_412" data-name="Path 412" d="M71.553,13.973H64.778V7.7H61.6V23.257h3.178V16.65h6.775v6.608h3.178V7.784H71.553Z" transform="translate(-10.078 -1.26)" fill="#7d7d7d"/>
    <path id="Path_413" data-name="Path 413" d="M83.478,16.666h6.775V14.157H83.478v-3.68H91.09V7.8H80.3V23.357H91.341V20.681H83.478Z" transform="translate(-13.137 -1.276)" fill="#7d7d7d"/>
    <g id="Group_220" data-name="Group 220" transform="translate(0 0.001)">
      <g id="Group_219" data-name="Group 219" clip-path="url(#clip-path)">
        <path id="Path_414" data-name="Path 414" d="M112.166,15.128a3.718,3.718,0,0,0,2.342-3.6c0-2.258-1.673-3.931-4.349-3.931H103.3V23.157h7.193c2.676,0,4.684-1.673,4.684-4.266a4.294,4.294,0,0,0-3.011-3.764m-5.938-4.935h2.927c1.338,0,2.258.669,2.258,2.007a1.872,1.872,0,0,1-2.091,2.007h-2.927V10.193ZM109.573,20.9h-3.429V16.55h3.262a2.119,2.119,0,0,1,2.426,2.258,1.985,1.985,0,0,1-2.258,2.091" transform="translate(-16.899 -1.244)" fill="#7d7d7d"/>
        <path id="Path_415" data-name="Path 415" d="M123.011,7.8H120V23.357h10.706V20.6h-7.611V7.8Z" transform="translate(-19.631 -1.276)" fill="#7d7d7d"/>
        <path id="Path_416" data-name="Path 416" d="M141.395,7.6c-4.433,0-7.695,3.095-7.695,7.946s3.262,7.862,7.695,7.862,7.695-3.095,7.695-7.946A7.421,7.421,0,0,0,141.395,7.6m0,13.048c-2.509,0-4.517-1.924-4.517-5.186s2.007-5.186,4.517-5.186,4.517,1.924,4.517,5.186-2.007,5.186-4.517,5.186" transform="translate(-21.873 -1.244)" fill="#7d7d7d"/>
        <path id="Path_417" data-name="Path 417" d="M161.577,10.26a3.672,3.672,0,0,1,3.931,3.178H168.6c-.335-3.429-2.509-5.938-7.026-5.938-4.266,0-7.277,3.178-7.277,7.946,0,4.851,3.095,7.946,7.277,7.946,4.517,0,6.691-2.509,7.026-5.938h-3.095a3.481,3.481,0,0,1-3.847,3.178c-2.426,0-4.266-1.924-4.266-5.186,0-3.178,1.84-5.186,4.182-5.186" transform="translate(-25.243 -1.227)" fill="#7d7d7d"/>
        <path id="Path_418" data-name="Path 418" d="M181.244,14.391,186.932,7.7h-3.68l-6.357,7.695V7.7H173.8V23.257h3.095v-4.1l2.258-2.509,4.684,6.691h3.6Z" transform="translate(-28.433 -1.26)" fill="#7d7d7d"/>
        <path id="Path_419" data-name="Path 419" d="M13.132,28.458.5,23.272c-.418-.251-.5-.251-.5-.753V5.792c0-.418.084-.5.5-.753L13.132.188a1.718,1.718,0,0,1,.92,0l12.63,4.851c.418.251.5.335.5.753V22.6c0,.418-.084.5-.5.753l-12.63,5.1c-.418.084-.5.167-.92,0m.418-1.422L24.59,22.687,13.55,18.672,2.509,22.6ZM1.506,21.516l9.953-3.68-1.84-.753c-.084-.084-.251-.251-.251-.335V11.563c0-.251.084-.335.251-.335l1.84-.753L1.506,6.712Zm24.172,0V6.8l-9.953,3.68,1.84.753c.084.084.251.251.251.335v5.186c0,.084-.084.335-.251.335l-1.84.753ZM13.55,17l2.676-1.087v-3.68L13.55,11.145l-2.676,1.087v3.68Zm0-7.277L24.59,5.708,13.55,1.442,2.509,5.624Z" transform="translate(0 -0.021)" fill="#7d7d7d"/>
        <path id="Path_420" data-name="Path 420" d="M26.614,5.1,13.984.084C13.9.084,13.65,0,13.566,0s-.335,0-.418.084L.518,5.1C.267,5.1.1,5.437.1,5.771V22.583c0,.335.251.5.418.669l12.462,5.1c.084,0,.335.084.418.084s.335,0,.418-.084l12.462-5.1a.662.662,0,0,0,.418-.669V5.771c.335-.335.084-.669-.084-.669M13.566,1.255,24.941,5.6,13.566,9.7,2.191,5.6Zm0,9.786,2.76,1.171v3.847l-2.76,1.171-2.76-1.171V12.212ZM1.355,6.608l10.371,3.931-2.091.836a.267.267,0,0,0-.251.251v5.1a.842.842,0,0,0,.084.251l2.091.836L1.271,21.663V6.608ZM13.566,27.183l-11.291-4.6,11.375-4.1,11.291,4.1Zm12.212-5.52L15.406,17.815l2.091-.836c.084,0,.084-.084.084-.251V11.459a.843.843,0,0,0-.084-.251l-2.091-.836L25.778,6.44Z" transform="translate(-0.016 0)" fill="#7d7d7d"/>
      </g>
    </g>
  </g>
</svg>
