<svg id="Group_216" data-name="Group 216" xmlns="http://www.w3.org/2000/svg" xmlns:xlink="http://www.w3.org/1999/xlink" width="160.248" height="29.527" viewBox="0 0 160.248 29.527">
  <defs>
    <clipPath id="clip-path">
      <rect id="Rectangle_1143" data-name="Rectangle 1143" width="160.248" height="29.527" fill="none"/>
    </clipPath>
  </defs>
  <g id="Group_215" data-name="Group 215" clip-path="url(#clip-path)">
    <path id="Path_402" data-name="Path 402" d="M0,0H11.748a8.35,8.35,0,0,1,5.159,1.492,5.863,5.863,0,0,1,2.114,4.724,4.569,4.569,0,0,1-2.8,4.6v.124a5.738,5.738,0,0,1,3.916,5.719,7.026,7.026,0,0,1-2.611,5.781,8.933,8.933,0,0,1-5.47,1.429H0ZM10.567,9.324a1.975,1.975,0,0,0,2.176-2.114A1.979,1.979,0,0,0,10.5,5.159H6.465v4.1h4.1Zm.559,9.262a2.3,2.3,0,0,0,2.487-2.424,2.266,2.266,0,0,0-2.487-2.424h-4.6v4.91h4.6Z" fill="#7d7d7d"/>
    <rect id="Rectangle_1142" data-name="Rectangle 1142" width="6.154" height="23.932" transform="translate(21.196)" fill="#7d7d7d"/>
    <path id="Path_403" data-name="Path 403" d="M87.153,28.528c0-5.408,3.481-9.013,8.889-9.013s8.827,3.667,8.827,9.013c0,5.408-3.419,9.013-8.827,9.013s-8.889-3.605-8.889-9.013m11.562,0c0-2.984-.932-4.848-2.8-4.848s-2.735,1.865-2.735,4.848.87,4.911,2.735,4.911c1.865-.062,2.8-1.927,2.8-4.911" transform="translate(-58.56 -13.112)" fill="#7d7d7d"/>
    <path id="Path_404" data-name="Path 404" d="M143.235,28.528c0-5.408,3.481-9.013,8.889-9.013s8.765,3.605,8.765,9.013-3.419,9.013-8.827,9.013c-5.346,0-8.827-3.605-8.827-9.013m11.562,0c0-2.984-.932-4.848-2.8-4.848s-2.735,1.865-2.735,4.848.87,4.911,2.735,4.911c1.865-.062,2.8-1.927,2.8-4.911" transform="translate(-96.242 -13.112)" fill="#7d7d7d"/>
    <path id="Path_405" data-name="Path 405" d="M200.832,19.822h5.719v2.549h.124a5.419,5.419,0,0,1,5.159-3.046,4.721,4.721,0,0,1,4.6,2.922h.124a5.661,5.661,0,0,1,5.284-2.922c3.978,0,5.656,2.922,5.656,6.838V36.854h-5.967V27.219c0-1.74-.559-2.859-2.051-2.859s-2.238,1.367-2.238,3.232v9.262h-5.967V27.219c0-1.74-.559-2.859-2.051-2.859s-2.238,1.367-2.238,3.232v9.262h-6.154Z" transform="translate(-134.943 -12.985)" fill="#7d7d7d"/>
    <path id="Path_406" data-name="Path 406" d="M293.2,21.632h-.062v2.238h-5.719V0h5.967V8.578h.124a5.66,5.66,0,0,1,4.849-2.3c4.289,0,6.775,3.854,6.775,9.013,0,5.781-2.673,9.138-7.148,9.138a5.263,5.263,0,0,1-4.786-2.8m5.781-6.4c0-2.735-.994-4.538-2.8-4.538-1.865,0-2.984,1.8-2.984,4.538s1.181,4.538,2.984,4.538,2.8-1.74,2.8-4.538" transform="translate(-193.121)" fill="#7d7d7d"/>
    <path id="Path_407" data-name="Path 407" d="M343.5,28.338c0-5.345,3.543-9.013,8.64-9.013a8.215,8.215,0,0,1,5.967,2.238c1.989,1.927,2.86,4.911,2.8,8.392H349.465c.249,2.113,1.243,3.232,3.046,3.232a2.33,2.33,0,0,0,2.362-1.616h5.781c-.994,3.916-4.04,5.843-8.329,5.843-5.283-.062-8.827-3.667-8.827-9.075m5.967-1.8h5.47c-.124-2.051-1.243-3.108-2.673-3.108-1.678-.062-2.611,1.119-2.8,3.108" transform="translate(-230.803 -12.985)" fill="#7d7d7d"/>
    <path id="Path_408" data-name="Path 408" d="M405.488,23h.124c1.243-2.362,2.859-3.295,4.91-3.295a1.855,1.855,0,0,1,.995.187v5.221h-.124c-3.543-.622-5.594,1.057-5.594,4.911v7.148h-6.03V20.077h5.719Z" transform="translate(-268.612 -13.239)" fill="#7d7d7d"/>
    <path id="Path_409" data-name="Path 409" d="M436.836,36.789h5.781a2.309,2.309,0,0,0,2.424,1.429c1.927,0,2.611-1.181,2.611-2.984V33.992h-.124a5.108,5.108,0,0,1-4.1,1.927c-3.668,0-6.9-2.735-6.9-8.081,0-4.911,2.611-8.7,6.589-8.7a5.029,5.029,0,0,1,4.6,2.362h.124V19.633h5.719V34.427a7.882,7.882,0,0,1-2.362,6.091,8.977,8.977,0,0,1-6.03,1.865c-4.6.062-7.77-1.8-8.33-5.594m11.065-9.2c0-2.114-.994-3.854-2.735-3.854-1.678,0-2.735,1.492-2.735,3.854,0,2.3,1.057,3.916,2.735,3.916s2.735-1.678,2.735-3.916" transform="translate(-293.309 -12.858)" fill="#7d7d7d"/>
  </g>
</svg>
