<svg id="Group_227" data-name="Group 227" xmlns="http://www.w3.org/2000/svg" xmlns:xlink="http://www.w3.org/1999/xlink" width="92.97" height="41.931" viewBox="0 0 92.97 41.931">
  <defs>
    <clipPath id="clip-path">
      <rect id="Rectangle_1149" data-name="Rectangle 1149" width="92.97" height="41.931" fill="none"/>
    </clipPath>
  </defs>
  <g id="Group_226" data-name="Group 226" clip-path="url(#clip-path)">
    <path id="Path_423" data-name="Path 423" d="M87.578,29.845,78.746.094h9.389l4,29.75Zm-10.321,0H66.566L62.2,23.15,57.92,29.845H47.415l9.67-15.713L48.066.094H58.571l3.905,6.322L65.822.094H76.514l-9.2,14.224ZM36.072,29.75c-9.019,0-16.362-6.6-16.362-14.875C19.71,6.694,27.056,0,36.072,0S52.434,6.6,52.434,14.875c.094,8.275-7.251,14.875-16.362,14.875M39.047,8.275s.092-2.138-2.881-2.138c-2.881,0-2.7,2.138-2.7,2.138V21.848s-.092,1.487,2.6,1.487,2.975-1.116,2.975-2.6ZM9.389,12.18h9.3v8.367h-9.3v9.3H0V.094H19.9l.092,8.367H9.389Zm2.14,20.359A2.533,2.533,0,0,1,12.18,34.4a2.647,2.647,0,0,1-1.022,2.138,2.328,2.328,0,0,1,1.208,2.232,2.6,2.6,0,0,1-.743,1.859,2.6,2.6,0,0,1-1.951,1.3H0V31.7H9.389a2.809,2.809,0,0,1,2.14.835m-9.2,6.694H9.575c.373,0,.465-.278.465-.743s-.186-.743-.465-.743H2.324Zm0-3.719H9.389c.373,0,.465-.278.465-.743s-.186-.743-.465-.743H2.324Zm13.667,2.975c0,.465.186.743.465.743h6.508c.278,0,.465-.278.465-.743V31.7h2.324v6.786a3.31,3.31,0,0,1-.743,2.138c-.557.557-1.208,1.3-2.046,1.3H16.456c-.838,0-1.487-.743-2.046-1.3a2.874,2.874,0,0,1-.743-2.138V31.7h2.324Zm20.267-.743H30.029a2.51,2.51,0,0,1-2.046-.93,2.88,2.88,0,0,1-.743-2.138,3.314,3.314,0,0,1,.743-2.138,2.818,2.818,0,0,1,2.046-.93h8.554v2.324H30.029c-.278,0-.465.278-.465.743s.186.743.465.743h6.229a2.51,2.51,0,0,1,2.046.93,3.314,3.314,0,0,1,.743,2.138,3.512,3.512,0,0,1-.743,2.138c-.557.557-1.208,1.3-2.046,1.3H27.7v-2.7h8.554c.278,0,.465-.278.465-.743s-.092-.743-.465-.743m6.322,4.184H40.256V31.7H42.58ZM52.342,38.3V31.7h2.324V41.931H52.342l-5.951-6.973v6.973H44.067V31.7h2.324ZM66.66,34.028H58.385v1.487H66.1v2.324H58.385v1.487h8.181v2.6H56.061V31.7H66.566v2.324h.094Zm10.505,3.719H70.936a2.51,2.51,0,0,1-2.046-.93,2.88,2.88,0,0,1-.743-2.138,3.314,3.314,0,0,1,.743-2.138,2.818,2.818,0,0,1,2.046-.93H79.49v2.324H70.936c-.278,0-.465.278-.465.743s.186.743.465.743h6.229a2.51,2.51,0,0,1,2.046.93,3.314,3.314,0,0,1,.743,2.138,3.512,3.512,0,0,1-.743,2.138c-.557.557-1.208,1.3-2.046,1.3H68.612v-2.7h8.554c.278,0,.465-.278.465-.743s-.186-.743-.465-.743m13.016,0H83.952a2.51,2.51,0,0,1-2.046-.93,2.88,2.88,0,0,1-.743-2.138,3.314,3.314,0,0,1,.743-2.138,2.818,2.818,0,0,1,2.046-.93h8.554v2.324H83.952c-.278,0-.465.278-.465.743s.186.743.465.743h6.229a2.51,2.51,0,0,1,2.046.93,3.314,3.314,0,0,1,.743,2.138,3.512,3.512,0,0,1-.743,2.138c-.557.557-1.208,1.3-2.046,1.3H81.627v-2.7h8.554c.278,0,.465-.278.465-.743s-.186-.743-.465-.743M76.514,4.278,85.9,29.845H79.952l-10.04-15.8Z" fill="#7d7d7d" fill-rule="evenodd"/>
  </g>
</svg>
