<svg id="Group_214" data-name="Group 214" xmlns="http://www.w3.org/2000/svg" xmlns:xlink="http://www.w3.org/1999/xlink" width="82.156" height="61.254" viewBox="0 0 82.156 61.254">
  <defs>
    <clipPath id="clip-path">
      <rect id="Rectangle_1141" data-name="Rectangle 1141" width="82.156" height="61.254" fill="none"/>
    </clipPath>
  </defs>
  <g id="Group_213" data-name="Group 213" clip-path="url(#clip-path)">
    <path id="Path_391" data-name="Path 391" d="M14.385,365.776c-.3-1.468-1.507-1.861-2.844-1.992-4.351-.406-5.124,2.857-5.124,4.233,0,2.359.682,4.3,4.954,4.3.786,0,2.962-.813,2.962-2.136h6.147c-.249,3.919-6.815,4.862-9.685,4.862-5.937,0-11.022-1.114-10.786-6.972.17-4.194,4.128-7.13,11.979-6.946,4.377.1,8.584,1.468,8.6,4.64h-6.2Z" transform="translate(0 -313.787)" fill="#7d7d7d" fill-rule="evenodd"/>
    <path id="Path_392" data-name="Path 392" d="M484.185,365.776c-.3-1.468-1.507-1.861-2.857-1.992-4.351-.406-5.124,2.857-5.124,4.233,0,2.359.682,4.3,4.967,4.3.786,0,2.962-.813,2.962-2.136h6.147c-.249,3.919-6.815,4.862-9.685,4.862-5.937,0-11.022-1.114-10.786-6.972.17-4.194,4.128-7.13,11.979-6.946,4.377.1,8.584,1.468,8.6,4.64h-6.2Z" transform="translate(-408.228 -313.787)" fill="#7d7d7d" fill-rule="evenodd"/>
    <path id="Path_393" data-name="Path 393" d="M165.46,363.377h7.982l6.8,9.567h.052v-9.567h5.124v13.289h-7.654l-7.143-9.567h-.052v9.567H165.46Z" transform="translate(-143.775 -315.753)" fill="#7d7d7d" fill-rule="evenodd"/>
    <path id="Path_394" data-name="Path 394" d="M329.76,363.377h9.7c4.653,0,7.392,1.311,7.392,3.276,0,1.166-1.14,2.6-3.709,3.027v.039c3.08.184,4.22,2.136,4.22,3.3,0,2.346-2.674,3.643-7.877,3.643H329.76Zm5.609,5.164h1.612c2.477,0,3.788-.2,3.788-1.219,0-1.1-1.088-1.468-3.316-1.468h-2.071v2.687Zm0,5.347h1.612c2.988,0,4.076-.315,4.076-1.35,0-1.1-1.376-1.468-3.6-1.468h-2.071v2.818Z" transform="translate(-286.542 -315.753)" fill="#7d7d7d" fill-rule="evenodd"/>
    <path id="Path_395" data-name="Path 395" d="M80.633,45.462a10.573,10.573,0,0,1-4.3.839l-61.769-.052a9.5,9.5,0,0,1-7.9-6.605,9.907,9.907,0,0,1,2.254-9.515,9.511,9.511,0,0,1,8.178-2.87,9.083,9.083,0,0,1-3.775-8.925,9.714,9.714,0,0,1,5.518-7.379,9.313,9.313,0,0,1,10.026,1.822,10.613,10.613,0,0,1-.079-6.291A9.484,9.484,0,0,1,35.444.3,9.162,9.162,0,0,1,45.26,4.257a17.759,17.759,0,0,1,1.009,1.992A9.638,9.638,0,0,1,53.884.076a9.252,9.252,0,0,1,8.7,3.866,9.934,9.934,0,0,1,1.153,8.742h.131A9.239,9.239,0,0,1,73.2,10.9,9.5,9.5,0,0,1,75.8,27.153,9.653,9.653,0,0,1,85.3,32.8,9.861,9.861,0,0,1,83.87,43.1a10.352,10.352,0,0,1-3.237,2.359" transform="translate(-5.436 0)" fill="#fff" fill-rule="evenodd"/>
    <path id="Path_396" data-name="Path 396" d="M372.4,101.358,349.56,116.64l7.693-18.283,3.657-8.519a8.509,8.509,0,0,1,7.3-4.561,8.358,8.358,0,0,1,7.13,3.919,8.908,8.908,0,0,1,.092,9.161,10.322,10.322,0,0,1-3.027,3" transform="translate(-303.747 -74.101)" fill="#7d7d7d" fill-rule="evenodd"/>
    <path id="Path_397" data-name="Path 397" d="M331.607,19.34l-11.3,26.71-.5-2.923L316.4,21.24a3.3,3.3,0,0,1,1.481-3.2l1.625-.97c.092-.341-.38-.446-.6-.564l-3.185-.026a8.356,8.356,0,0,1,3.853-7.746,8.271,8.271,0,0,1,7.549-.616,8.636,8.636,0,0,1,5.151,7.693,9.372,9.372,0,0,1-.668,3.526" transform="translate(-274.326 -6.499)" fill="#7d7d7d" fill-rule="evenodd"/>
    <path id="Path_398" data-name="Path 398" d="M193.461,46.281,182.334,19.505a8.936,8.936,0,0,1,1.35-8.951,8.325,8.325,0,0,1,8.453-2.634,8.605,8.605,0,0,1,5.871,5.989,10.433,10.433,0,0,1,.21,3.394Z" transform="translate(-157.883 -6.638)" fill="#7d7d7d" fill-rule="evenodd"/>
    <path id="Path_399" data-name="Path 399" d="M69.939,100.4a8.546,8.546,0,0,1-2.975-7.68,8.741,8.741,0,0,1,5.675-7.051,8.241,8.241,0,0,1,8.414,2.045,8.824,8.824,0,0,1,1.953,2.962l10.747,26.015Z" transform="translate(-58.135 -74.097)" fill="#7d7d7d" fill-rule="evenodd"/>
    <path id="Path_400" data-name="Path 400" d="M21.621,232.724a8.231,8.231,0,0,1-6.658-4.666,8.977,8.977,0,0,1,.852-9.1,8.35,8.35,0,0,1,8.1-3.119,8.684,8.684,0,0,1,3.237,1.337L50.27,232.724Z" transform="translate(-12.255 -187.42)" fill="#7d7d7d" fill-rule="evenodd"/>
    <path id="Path_401" data-name="Path 401" d="M360.61,232.724a8.231,8.231,0,0,0,6.658-4.666,8.977,8.977,0,0,0-.852-9.1,8.35,8.35,0,0,0-8.1-3.119,8.684,8.684,0,0,0-3.237,1.337L331.96,232.724Z" transform="translate(-288.453 -187.42)" fill="#7d7d7d" fill-rule="evenodd"/>
  </g>
</svg>
