<svg xmlns="http://www.w3.org/2000/svg" width="70.951" height="12" viewBox="0 0 70.951 12">
  <g id="Group_372" data-name="Group 372" transform="translate(-543.2 -1843.5)">
    <path id="Icon_open-star" data-name="Icon open-star" d="M6,0,4.5,4.5H0l3.75,3L2.25,12,6,9l3.75,3L8.25,7.5,12,4.5H7.5Z" transform="translate(543.2 1843.5)" fill="#25c95c"/>
    <path id="Path_442" data-name="Path 442" d="M-22.25-9.087v.754h-2.522V0h-.91V-8.333h-2.535v-.754Zm2.353,3.25a2.224,2.224,0,0,1,.917-1.027,2.936,2.936,0,0,1,1.514-.364v.949h-.247a2.3,2.3,0,0,0-1.586.533,2.286,2.286,0,0,0-.6,1.781V0h-.91V-7.1h.91ZM-9.952-7.1V0h-.91V-1.248a2.181,2.181,0,0,1-.962,1.014A3.014,3.014,0,0,1-13.28.117,2.853,2.853,0,0,1-15.36-.67a3.045,3.045,0,0,1-.806-2.282V-7.1h.9v4.043a2.476,2.476,0,0,0,.579,1.768,2.071,2.071,0,0,0,1.58.611,2.141,2.141,0,0,0,1.638-.65,2.693,2.693,0,0,0,.611-1.911V-7.1ZM-5.428.1a3.3,3.3,0,0,1-2-.566A2.06,2.06,0,0,1-8.288-2h.936a1.343,1.343,0,0,0,.566.969,2.212,2.212,0,0,0,1.345.371,1.767,1.767,0,0,0,1.164-.351,1.089,1.089,0,0,0,.422-.871.81.81,0,0,0-.234-.6,1.66,1.66,0,0,0-.592-.37,9.235,9.235,0,0,0-.968-.293,9.848,9.848,0,0,1-1.287-.416,2.192,2.192,0,0,1-.839-.617,1.651,1.651,0,0,1-.344-1.1,1.634,1.634,0,0,1,.312-.962,2.129,2.129,0,0,1,.884-.7,3.109,3.109,0,0,1,1.3-.26,2.81,2.81,0,0,1,1.846.578,2.1,2.1,0,0,1,.754,1.593h-.91A1.382,1.382,0,0,0-4.42-6.039a1.829,1.829,0,0,0-1.228-.384A1.8,1.8,0,0,0-6.767-6.1a.978.978,0,0,0-.429.806.95.95,0,0,0,.253.682,1.742,1.742,0,0,0,.631.416q.377.15,1.014.331a9.576,9.576,0,0,1,1.222.4,2.12,2.12,0,0,1,.78.572,1.531,1.531,0,0,1,.338,1A1.744,1.744,0,0,1-3.27-.864a2.122,2.122,0,0,1-.871.708A3.02,3.02,0,0,1-5.428.1ZM-.059-6.331v4.407a1.262,1.262,0,0,0,.247.9,1.216,1.216,0,0,0,.871.247h.832V0H.916A2,2,0,0,1-.514-.449,1.976,1.976,0,0,1-.982-1.924V-6.331H-1.97V-7.1h.988V-8.879h.923V-7.1h1.95v.767ZM9.2-6.474A2.456,2.456,0,0,1,8.43-4.589a3.268,3.268,0,0,1-2.3.715H4.3V0h-.91V-9.087H6.129a3.272,3.272,0,0,1,2.295.715A2.461,2.461,0,0,1,9.2-6.474ZM6.129-4.654q2.132,0,2.132-1.82a1.783,1.783,0,0,0-.507-1.378A2.348,2.348,0,0,0,6.129-8.32H4.3v3.666Zm5.044-3.783a.638.638,0,0,1-.468-.195.654.654,0,0,1-.2-.481.632.632,0,0,1,.2-.474.649.649,0,0,1,.468-.188.649.649,0,0,1,.468.188.632.632,0,0,1,.195.474.654.654,0,0,1-.195.481A.638.638,0,0,1,11.173-8.437ZM11.628-7.1V0h-.91V-7.1ZM14.605-9.62V0H13.7V-9.62ZM19.779.1a3.616,3.616,0,0,1-1.8-.449,3.242,3.242,0,0,1-1.261-1.274,3.892,3.892,0,0,1-.462-1.93,3.848,3.848,0,0,1,.468-1.931A3.273,3.273,0,0,1,18-6.753,3.652,3.652,0,0,1,19.806-7.2a3.689,3.689,0,0,1,1.813.449A3.217,3.217,0,0,1,22.893-5.48a3.892,3.892,0,0,1,.461,1.931,3.858,3.858,0,0,1-.468,1.924A3.238,3.238,0,0,1,21.6-.345,3.726,3.726,0,0,1,19.779.1Zm0-.793a2.723,2.723,0,0,0,1.3-.319,2.431,2.431,0,0,0,.969-.962,3.121,3.121,0,0,0,.37-1.579,3.166,3.166,0,0,0-.364-1.579,2.389,2.389,0,0,0-.962-.962,2.723,2.723,0,0,0-1.3-.319,2.723,2.723,0,0,0-1.3.319,2.349,2.349,0,0,0-.955.962,3.212,3.212,0,0,0-.358,1.579,3.212,3.212,0,0,0,.358,1.579,2.36,2.36,0,0,0,.949.962A2.685,2.685,0,0,0,19.779-.689ZM26.2-6.331v4.407a1.262,1.262,0,0,0,.247.9,1.216,1.216,0,0,0,.871.247h.832V0h-.975a2,2,0,0,1-1.43-.449,1.976,1.976,0,0,1-.468-1.475V-6.331h-.988V-7.1h.988V-8.879H26.2V-7.1h1.95v.767Z" transform="translate(586 1855)" fill="#fff"/>
  </g>
</svg>
