<svg xmlns="http://www.w3.org/2000/svg" xmlns:xlink="http://www.w3.org/1999/xlink" width="28.864" height="29.612" viewBox="0 0 28.864 29.612">
  <defs>
    <clipPath id="clip-path">
      <rect id="Rectangle_2107" data-name="Rectangle 2107" width="28.864" height="29.612" transform="translate(0 0)" fill="#6221bd"/>
    </clipPath>
  </defs>
  <g id="Group_369" data-name="Group 369" transform="translate(0 0)">
    <g id="Group_368" data-name="Group 368" clip-path="url(#clip-path)">
      <path id="Path_440" data-name="Path 440" d="M27.732,9.05a14.781,14.781,0,0,0-3.088-4.706,14.364,14.364,0,0,0-4.588-3.177,14.137,14.137,0,0,0-11.249,0A14.371,14.371,0,0,0,4.22,4.344,14.764,14.764,0,0,0,1.132,9.05a15.2,15.2,0,0,0,0,11.513,14.749,14.749,0,0,0,3.088,4.7,14.371,14.371,0,0,0,4.587,3.177,14.137,14.137,0,0,0,11.249,0,14.364,14.364,0,0,0,4.588-3.177,14.766,14.766,0,0,0,3.088-4.7,15.2,15.2,0,0,0,0-11.513M16.641,20.386v-.031l0,0c0,.012,0,.023,0,.035m6.393,3.919a17.5,17.5,0,0,0-4.307-1.867c-.307-.1-.573-.18-.758-.25l-.451-.32c-.619-.76-.058-2.291-.052-2.309l.073-.193a6.264,6.264,0,0,0,1.077-1.347,7.975,7.975,0,0,0,.847-1.992c.016,0,.031.012.048.016a.692.692,0,0,0,.1.017l.294.024a.682.682,0,0,0,.493-.155.65.65,0,0,0,.239-.45l.238-2.763a.67.67,0,0,0-.476-.689c.34-2.771.083-7.183-4.853-7.639C8.3,3.717,9.2,7.681,9.2,7.681,7.482,9.038,7.667,10.969,8.2,12.452a.646.646,0,0,0-.037.339L8.6,15.53a.678.678,0,0,0,.67.561.74.74,0,0,0,.1-.008l.291-.044a.694.694,0,0,0,.111-.028,6.909,6.909,0,0,0,2.335,3.7,2.882,2.882,0,0,1,.068,1.885,1.1,1.1,0,0,1-.678.59c-.2.071-.491.154-.825.251a19.466,19.466,0,0,0-4.778,1.93,13.129,13.129,0,0,1-4.086-9.56A12.825,12.825,0,0,1,14.432,1.817,12.825,12.825,0,0,1,27.056,14.806a13.133,13.133,0,0,1-4.022,9.5" fill="#6221bd"/>
    </g>
  </g>
</svg>
